<?xml version="1.0" encoding="UTF-8"?>
<svg version="1.1" xmlns="http://www.w3.org/2000/svg" width="500" height="500">
<path d="M0 0 C0.33 0 0.66 0 1 0 C1 11.88 1 23.76 1 36 C134.32 36 267.64 36 405 36 C405 26.1 405 16.2 405 6 C408.58614213 9.58614213 409.32270259 13.03315232 410 18 C410.99 18.33 411.98 18.66 413 19 C413.12375 20.134375 413.2475 21.26875 413.375 22.4375 C413.58125 23.613125 413.7875 24.78875 414 26 C414.66 26.33 415.32 26.66 416 27 C416.35179197 29.3306218 416.68330179 31.66435067 417 34 C417.95584438 36.33588323 417.95584438 36.33588323 419 38 C418.67 38.33 418.34 38.66 418 39 C418.66 39.66 419.32 40.32 420 41 C422.19069278 46.14655577 423.53622646 51.43471749 424 57 C423.67 57.33 423.34 57.66 423 58 C423.66 58.66 424.32 59.32 425 60 C425.74895901 63.44521146 426 66.46032681 426 70 C426.3403125 71.7015625 426.3403125 71.7015625 426.6875 73.4375 C427.04571852 77.52119112 426.45777557 78.81399463 424 82 C423.34 82.66 422.68 83.32 422 84 C419.89767656 86.8684413 419.89767656 86.8684413 419 90 C417.515 90.495 417.515 90.495 416 91 C415.34 91.99 414.68 92.98 414 94 C413.34 94 412.68 94 412 94 C411.896875 94.928125 411.79375 95.85625 411.6875 96.8125 C410.98538152 100.0677766 410.62225892 101.08373387 408 103 C406.515 103.495 406.515 103.495 405 104 C404.67 104.99 404.34 105.98 404 107 C402.5625 109.6875 402.5625 109.6875 401 112 C400.34 112 399.68 112 399 112 C398.855625 112.639375 398.71125 113.27875 398.5625 113.9375 C398 116 398 116 397 117 C394.9377335 117.09880961 392.8720139 117.12555713 390.80738163 117.12584114 C390.15004962 117.12729458 389.4927176 117.12874802 388.81546643 117.13024551 C386.58537488 117.13393102 384.35535059 117.13040737 382.1252594 117.12698364 C380.52127403 117.12813446 378.91728892 117.12972171 377.31330436 117.13171089 C372.88420564 117.1359097 368.4551283 117.13381104 364.02602947 117.13072467 C359.25772825 117.128473 354.48943085 117.13194902 349.72113037 117.13470459 C340.371268 117.1391639 331.02141363 117.13818508 321.67155094 117.13529195 C314.07576633 117.13303841 306.47998398 117.13272518 298.88419914 117.13381577 C297.80529656 117.133969 296.72639397 117.13412223 295.61479736 117.13428011 C293.42337736 117.13459982 291.23195735 117.13492403 289.04053735 117.1352527 C268.46492195 117.138108 247.88931099 117.13481976 227.31369632 117.12945233 C209.64068789 117.12498488 191.96768604 117.12575965 174.29467773 117.13037109 C153.79689279 117.13571707 133.29911176 117.13783263 112.80132622 117.13475883 C110.61742302 117.13444026 108.43351982 117.13412589 106.24961662 117.13381577 C105.17495414 117.13366149 104.10029166 117.13350721 102.99306365 117.13334826 C95.40274443 117.13248313 87.81242768 117.13394592 80.22210884 117.13629532 C70.97721633 117.13909381 61.73233231 117.13835405 52.48744077 117.13301457 C47.76628508 117.13037813 43.04514357 117.12937154 38.32398796 117.13266373 C34.00811023 117.13562788 29.69225994 117.13403186 25.37638473 117.12868617 C23.80909492 117.12756249 22.24180283 117.1281521 20.67451448 117.13056196 C18.55579582 117.13357159 16.43717303 117.13051554 14.31845951 117.12584114 C13.13807136 117.12567879 11.9576832 117.12551644 10.74152571 117.12534916 C8 117 8 117 6 116 C6 115.34 6 114.68 6 114 C5.34 114 4.68 114 4 114 C2.97676564 112.68441297 1.98244845 111.34631825 1 110 C-0.299375 108.7625 -0.299375 108.7625 -1.625 107.5 C-3.86182979 105.14544233 -4.65066621 104.14400411 -5 101 C-5.99 101.495 -5.99 101.495 -7 102 C-7 100.68 -7 99.36 -7 98 C-8.32 98 -9.64 98 -11 98 C-11.33 95.69 -11.66 93.38 -12 91 C-13.485 91.495 -13.485 91.495 -15 92 C-15 91.01 -15 90.02 -15 89 C-16.62102968 87.28891311 -18.29503463 85.62746694 -20 84 C-22.43528663 81.63053193 -23.88171606 80.11337104 -24.24609375 76.68359375 C-24.24960325 74.44102199 -24.17530872 72.23518616 -24 70 C-23.34 70 -22.68 70 -22 70 C-22.33 69.01 -22.66 68.02 -23 67 C-22.67 66.01 -22.34 65.02 -22 64 C-21.835 63.319375 -21.67 62.63875 -21.5 61.9375 C-21 60 -21 60 -20 58 C-20.495 56.515 -20.495 56.515 -21 55 C-20.34 55 -19.68 55 -19 55 C-19.226875 54.4225 -19.45375 53.845 -19.6875 53.25 C-20.11445514 50.17592301 -18.80615783 49.40821044 -17 47 C-17.17273438 46.37609375 -17.34546875 45.7521875 -17.5234375 45.109375 C-18.13480421 42.40332561 -17.52780688 41.59123632 -16.125 39.25 C-13.86579097 35.10551998 -13.33474773 31.68646823 -13 27 C-12.34 27 -11.68 27 -11 27 C-10.87625 25.948125 -10.7525 24.89625 -10.625 23.8125 C-10.07580545 20.46241326 -9.37737453 18.06083228 -8 15 C-7.505 13.80375 -7.01 12.6075 -6.5 11.375 C-5 8 -5 8 -3 5 C-2.34 5 -1.68 5 -1 5 C-0.67 3.35 -0.34 1.7 0 0 Z M-14 87 C-13 89 -13 89 -13 89 Z " fill="#FB740C" transform="translate(47,183)"/>
<path d="M0 0 C110.88 0 221.76 0 336 0 C334.515 1.485 334.515 1.485 333 3 C332.649375 3.70125 332.29875 4.4025 331.9375 5.125 C331 7 331 7 329 8 C328.34786708 10.02463255 328.34786708 10.02463255 328 12 C327.34 12 326.68 12 326 12 C325.7421875 12.57363281 325.484375 13.14726562 325.21875 13.73828125 C323.8894836 16.20509293 322.35595983 18.09168096 320.5 20.1875 C319.8915625 20.88230469 319.283125 21.57710938 318.65625 22.29296875 C317 24 317 24 315 25 C315 25.99 315 26.98 315 28 C314.34 28 313.68 28 313 28 C312.64228516 28.79277344 312.64228516 28.79277344 312.27734375 29.6015625 C310.62217968 32.70942409 308.61613229 35.52354803 306.5625 38.375 C306.12655518 38.98206787 305.69061035 39.58913574 305.24145508 40.21459961 C301.97373495 44.72926641 298.61670114 49.16940576 295.1875 53.5625 C294.74414307 54.13339355 294.30078613 54.70428711 293.84399414 55.29248047 C291.09985337 58.77041756 288.13965719 61.88166476 285 65 C284.34 65.99 283.68 66.98 283 68 C281.906875 67.835 280.81375 67.67 279.6875 67.5 C276.12474127 66.93281816 276.12474127 66.93281816 273 67 C273 66.34 273 65.68 273 65 C271.39125 65.309375 271.39125 65.309375 269.75 65.625 C265.99351096 66.0006489 265.07800555 65.82400329 262 64 C261.34 64.33 260.68 64.66 260 65 C260 64.34 260 63.68 260 63 C259.20335937 62.95101562 258.40671875 62.90203125 257.5859375 62.8515625 C252.04486137 62.46058633 247.24433699 61.91865987 242 60 C241.154375 60 240.30875 60 239.4375 60 C236.5044262 60 234.68902205 59.15243802 232 58 C227.82177711 56.65699979 224.37413998 55.87849611 220 56 C219.01 55.67 218.02 55.34 217 55 C215.03516374 54.7707691 213.0703256 54.54155435 211.10546875 54.3125 C207.97871491 53.8484178 205.02603231 52.90250087 202 52 C196.54932183 50.57174743 191.63910656 49.76003802 186 50 C186 49.34 186 48.68 186 48 C183.87060782 47.75958475 181.74079211 47.52252806 179.609375 47.30078125 C177.96848207 47.11163641 176.33104241 46.88509402 174.703125 46.60546875 C166.80467564 45.39949745 159.7026952 47.2372357 152 49 C150.29296882 49.33993887 148.5847849 49.67419408 146.875 50 C143.01867318 50.76483815 139.20004719 51.65448995 135.375 52.5625 C130.5727326 53.6881198 125.897987 54.46567415 121 55 C120.29875 55.185625 119.5975 55.37125 118.875 55.5625 C116.23990812 56.17735477 113.69374583 56.0612215 111 56 C111 56.66 111 57.32 111 58 C110.22914063 58.04898438 109.45828125 58.09796875 108.6640625 58.1484375 C107.66117187 58.22320312 106.65828125 58.29796875 105.625 58.375 C104.62726563 58.44460938 103.62953125 58.51421875 102.6015625 58.5859375 C99.84491121 58.76363964 99.84491121 58.76363964 98 61 C98 60.34 98 59.68 98 59 C96.9275 59.309375 95.855 59.61875 94.75 59.9375 C90.50979795 61.13889058 86.31880823 62.13623835 82 63 C81.33871094 63.15597656 80.67742187 63.31195313 79.99609375 63.47265625 C73.06291603 65.1004458 66.14573695 66.23050764 59 66 C58.67 66.66 58.34 67.32 58 68 C55 68 55 68 52 66 C52 65.34 52 64.68 52 64 C51.34 64 50.68 64 50 64 C50 63.34 50 62.68 50 62 C49.34 62 48.68 62 48 62 C44 57.52941176 44 57.52941176 44 55 C43.34 55 42.68 55 42 55 C40.66796875 53.27734375 40.66796875 53.27734375 39.1875 50.9375 C37.2439406 47.90994064 35.26602663 44.95380091 33.125 42.0625 C31 39 31 39 31 37 C30.34 37 29.68 37 29 37 C27.4921875 35.3203125 27.4921875 35.3203125 25.875 33.125 C25.06675781 32.04605469 25.06675781 32.04605469 24.2421875 30.9453125 C23 29 23 29 23 27 C22.01 26.67 21.02 26.34 20 26 C19.67 25.01 19.34 24.02 19 23 C18.34 22.67 17.68 22.34 17 22 C17 21.01 17 20.02 17 19 C16.34 19 15.68 19 15 19 C13.5625 17.28515625 13.5625 17.28515625 12 15.0625 C9.95183196 12.01367363 9.95183196 12.01367363 7 10 C6.67 9.01 6.34 8.02 6 7 C5.34 6.67 4.68 6.34 4 6 C4 5.01 4 4.02 4 3 C2.68 2.34 1.36 1.68 0 1 C0 0.67 0 0.34 0 0 Z " fill="#FB6F0A" transform="translate(80,334)"/>
<path d="M0 0 C2.37770028 0.02385323 4.75428794 0.02049056 7.13208008 0.01391602 C31.46363867 0.05718009 31.46363867 0.05718009 41.5480957 6.33618164 C42.5380957 7.82118164 42.5380957 7.82118164 43.5480957 9.33618164 C45.52225838 10.38626817 47.52392436 11.3860604 49.5480957 12.33618164 C50.5380957 12.99618164 51.5280957 13.65618164 52.5480957 14.33618164 C52.5480957 14.99618164 52.5480957 15.65618164 52.5480957 16.33618164 C54.5280957 16.99618164 56.5080957 17.65618164 58.5480957 18.33618164 C58.5480957 18.99618164 58.5480957 19.65618164 58.5480957 20.33618164 C59.1255957 20.60430664 59.7030957 20.87243164 60.2980957 21.14868164 C62.5480957 22.33618164 62.5480957 22.33618164 64.2355957 23.77368164 C70.22879134 27.82313815 78.01462507 29.02193676 84.9465332 30.68774414 C87.5480957 31.33618164 87.5480957 31.33618164 90.5480957 32.33618164 C91.6824707 32.48055664 92.8168457 32.62493164 93.9855957 32.77368164 C97.0877529 33.26349593 98.83995284 33.93195942 101.5480957 35.33618164 C102.2080957 35.00618164 102.8680957 34.67618164 103.5480957 34.33618164 C104.2080957 34.99618164 104.8680957 35.65618164 105.5480957 36.33618164 C107.75060563 36.7962451 107.75060563 36.7962451 110.1730957 36.96118164 C110.99036133 37.03594727 111.80762695 37.11071289 112.6496582 37.18774414 C113.27614258 37.23672852 113.90262695 37.28571289 114.5480957 37.33618164 C114.5480957 37.99618164 114.5480957 38.65618164 114.5480957 39.33618164 C115.10110352 39.14540039 115.65411133 38.95461914 116.22387695 38.75805664 C119.11769181 38.23279277 120.92162377 38.75782627 123.7355957 39.58618164 C124.69852539 39.8659082 125.66145508 40.14563477 126.65356445 40.43383789 C130.0185896 41.48285383 133.35511125 42.59604935 136.6730957 43.78540039 C138.70212245 44.47710247 138.70212245 44.47710247 141.5480957 44.33618164 C142.5380957 44.33618164 143.5280957 44.33618164 144.5480957 44.33618164 C145.2080957 44.99618164 145.8680957 45.65618164 146.5480957 46.33618164 C148.56317928 47.0694196 148.56317928 47.0694196 150.5480957 47.33618164 C150.8780957 47.00618164 151.2080957 46.67618164 151.5480957 46.33618164 C154.0480957 46.64868164 154.0480957 46.64868164 156.5480957 47.33618164 C156.8780957 47.99618164 157.2080957 48.65618164 157.5480957 49.33618164 C158.4143457 49.02680664 158.4143457 49.02680664 159.2980957 48.71118164 C162.12327879 48.24031779 163.09360227 48.95552908 165.5480957 50.33618164 C166.1874707 50.48055664 166.8268457 50.62493164 167.4855957 50.77368164 C170.14903841 51.50007511 172.19626849 52.91270728 174.5480957 54.33618164 C175.2080957 54.33618164 175.8680957 54.33618164 176.5480957 54.33618164 C176.8780957 53.67618164 177.2080957 53.01618164 177.5480957 52.33618164 C178.1668457 52.66618164 178.7855957 52.99618164 179.4230957 53.33618164 C181.45827914 54.47811399 181.45827914 54.47811399 183.5480957 54.33618164 C184.5380957 54.33618164 185.5280957 54.33618164 186.5480957 54.33618164 C186.5480957 54.99618164 186.5480957 55.65618164 186.5480957 56.33618164 C187.5380957 56.66618164 188.5280957 56.99618164 189.5480957 57.33618164 C188.5480957 58.33618164 188.5480957 58.33618164 186.00656217 58.46038014 C184.86170538 58.46000042 183.71684858 58.4596207 182.53729916 58.45922947 C181.22206798 58.46122052 179.90683679 58.46321157 178.55175012 58.46526295 C177.07298766 58.46240935 175.59422537 58.45946374 174.11546326 58.45643616 C172.55955029 58.45687172 171.00363739 58.45774636 169.44772488 58.45902532 C165.15158163 58.46127317 160.85546306 58.45724506 156.55932295 58.45224726 C151.93421211 58.44794708 147.30910276 58.44938888 142.68399048 58.45014954 C134.66382451 58.45067505 126.64366666 58.44752543 118.62350273 58.4419117 C107.02755138 58.43380035 95.43160397 58.43118185 83.83565009 58.42992371 C65.02405747 58.42773261 46.21246918 58.42107097 27.40087891 58.41162109 C9.12223329 58.40244846 -9.15641115 58.3953669 -27.43505859 58.39111328 C-29.12381051 58.3907192 -29.12381051 58.3907192 -30.84667862 58.39031715 C-36.49440284 58.38901216 -42.14212707 58.38774844 -47.78985131 58.38650525 C-94.6772053 58.37613084 -141.56455458 58.35851096 -188.4519043 58.33618164 C-187.1319043 57.01618164 -185.8119043 55.69618164 -184.4519043 54.33618164 C-184.4519043 54.99618164 -184.4519043 55.65618164 -184.4519043 56.33618164 C-183.5237793 55.84118164 -182.5956543 55.34618164 -181.6394043 54.83618164 C-178.4519043 53.33618164 -178.4519043 53.33618164 -175.4519043 53.33618164 C-174.7919043 52.67618164 -174.1319043 52.01618164 -173.4519043 51.33618164 C-170.61223199 51.33618164 -168.21454718 51.73885345 -165.4519043 52.33618164 C-165.1219043 51.34618164 -164.7919043 50.35618164 -164.4519043 49.33618164 C-164.1219043 49.99618164 -163.7919043 50.65618164 -163.4519043 51.33618164 C-162.7919043 50.67618164 -162.1319043 50.01618164 -161.4519043 49.33618164 C-161.1219043 49.00618164 -160.7919043 48.67618164 -160.4519043 48.33618164 C-158.51877623 48.40061924 -156.58517222 48.46875586 -154.6550293 48.59399414 C-152.33165962 48.47849562 -152.33165962 48.47849562 -150.2097168 46.96118164 C-146.62355866 44.84809129 -143.1149505 44.09362181 -139.0769043 43.21118164 C-138.34729492 43.04231445 -137.61768555 42.87344727 -136.8659668 42.69946289 C-133.44733742 41.92416659 -130.08251765 41.28362663 -126.6081543 40.78930664 C-123.40398733 40.43752475 -123.40398733 40.43752475 -120.3269043 39.21118164 C-117.2038699 38.26069291 -115.54350135 38.42688839 -112.4519043 39.33618164 C-111.9569043 38.34618164 -111.9569043 38.34618164 -111.4519043 37.33618164 C-108.16301388 35.69173643 -104.51865743 35.93714054 -100.88549805 35.71508789 C-100.08241211 35.59004883 -99.27932617 35.46500977 -98.4519043 35.33618164 C-97.9569043 34.34618164 -97.9569043 34.34618164 -97.4519043 33.33618164 C-95.2722168 32.77368164 -95.2722168 32.77368164 -92.4519043 32.33618164 C-91.45932617 32.17118164 -90.46674805 32.00618164 -89.4440918 31.83618164 C-87.36088895 31.50203381 -85.27755466 31.16870439 -83.1940918 30.83618164 C-80.37413311 30.38854958 -80.37413311 30.38854958 -77.4519043 29.33618164 C-76.7919043 29.66618164 -76.1319043 29.99618164 -75.4519043 30.33618164 C-75.1219043 29.67618164 -74.7919043 29.01618164 -74.4519043 28.33618164 C-71.94799805 27.70336914 -71.94799805 27.70336914 -68.8894043 27.21118164 C-67.87749023 27.04360352 -66.86557617 26.87602539 -65.82299805 26.70336914 C-65.04053711 26.58219727 -64.25807617 26.46102539 -63.4519043 26.33618164 C-63.4519043 25.67618164 -63.4519043 25.01618164 -63.4519043 24.33618164 C-61.44018555 22.75024414 -61.44018555 22.75024414 -58.7644043 20.96118164 C-55.89096171 19.0143938 -53.14826541 17.08947504 -50.4519043 14.89868164 C-48.4519043 13.33618164 -48.4519043 13.33618164 -46.4519043 13.33618164 C-46.4519043 12.67618164 -46.4519043 12.01618164 -46.4519043 11.33618164 C-44.11976282 10.12990157 -41.95548291 9.17070785 -39.4519043 8.33618164 C-38.7919043 7.34618164 -38.1319043 6.35618164 -37.4519043 5.33618164 C-36.4619043 5.33618164 -35.4719043 5.33618164 -34.4519043 5.33618164 C-34.4519043 4.67618164 -34.4519043 4.01618164 -34.4519043 3.33618164 C-22.888288 1.05861715 -11.78680776 -0.12600324 0 0 Z " fill="#FC7A0D" transform="translate(247.451904296875,115.663818359375)"/>
<path d="M0 0 C0.99 0.495 0.99 0.495 2 1 C1.34 1.66 0.68 2.32 0 3 C0 2.01 0 1.02 0 0 Z " fill="#FCAE1A" transform="translate(31,218)"/>
<path d="M0 0 C0.66 0 1.32 0 2 0 C1.67 0.66 1.34 1.32 1 2 C0.67 1.34 0.34 0.68 0 0 Z " fill="#FA5504" transform="translate(319,470)"/>
<path d="M0 0 C0.33 0.66 0.66 1.32 1 2 C0.34 1.67 -0.32 1.34 -1 1 C-0.67 0.67 -0.34 0.34 0 0 Z " fill="#FD8C12" transform="translate(136,401)"/>
<path d="M0 0 C0.66 0.66 1.32 1.32 2 2 C1.34 2 0.68 2 0 2 C0 1.34 0 0.68 0 0 Z " fill="#F94301" transform="translate(442,172)"/>
<path d="M0 0 C0.66 0.66 1.32 1.32 2 2 C1.34 2 0.68 2 0 2 C0 1.34 0 0.68 0 0 Z " fill="#FCAA19" transform="translate(56,172)"/>
<path d="" fill="#FA4C03" transform="translate(0,0)"/>
<path d="M0 0 C2 1 2 1 2 1 Z " fill="#F95204" transform="translate(329,464)"/>
<path d="M0 0 C2 1 2 1 2 1 Z " fill="#FA4D03" transform="translate(352,449)"/>
<path d="M0 0 C2 1 2 1 2 1 Z " fill="#FD9C16" transform="translate(66,447)"/>
<path d="" fill="#FD9E16" transform="translate(0,0)"/>
<path d="M0 0 C2 1 2 1 2 1 Z " fill="#F83E01" transform="translate(415,412)"/>
<path d="" fill="#F83600" transform="translate(0,0)"/>
<path d="M0 0 C2 1 2 1 2 1 Z " fill="#F93B00" transform="translate(452,287)"/>
<path d="" fill="#F83A00" transform="translate(0,0)"/>
<path d="M0 0 C2 1 2 1 2 1 Z " fill="#FCA919" transform="translate(67,160)"/>
<path d="M0 0 C2 1 2 1 2 1 Z " fill="#FB6407" transform="translate(327,144)"/>
<path d="M0 0 C2 1 2 1 2 1 Z " fill="#FD9213" transform="translate(166,133)"/>
<path d="M0 0 C2 1 2 1 2 1 Z " fill="#FCB41C" transform="translate(20,129)"/>
<path d="M0 0 C2 1 2 1 2 1 Z " fill="#FAB71D" transform="translate(6,122)"/>
<path d="" fill="#FCB11B" transform="translate(0,0)"/>
<path d="" fill="#F84302" transform="translate(0,0)"/>
<path d="" fill="#FD9E16" transform="translate(0,0)"/>
<path d="" fill="#FC710B" transform="translate(0,0)"/>
<path d="M0 0 C2 1 2 1 2 1 Z " fill="#FC7D0D" transform="translate(262,48)"/>
<path d="M0 0 C2 1 2 1 2 1 Z " fill="#FA4B02" transform="translate(440,33)"/>
<path d="" fill="#FBB21B" transform="translate(0,0)"/>
<path d="" fill="#F83C00" transform="translate(0,0)"/>
<path d="" fill="#F94301" transform="translate(0,0)"/>
<path d="" fill="#FD9D16" transform="translate(0,0)"/>
<path d="" fill="#FCA919" transform="translate(0,0)"/>
<path d="" fill="#F83C01" transform="translate(0,0)"/>
<path d="" fill="#F94702" transform="translate(0,0)"/>
<path d="" fill="#FC8310" transform="translate(0,0)"/>
<path d="" fill="#FA4A03" transform="translate(0,0)"/>
<path d="" fill="#FB6006" transform="translate(0,0)"/>
<path d="" fill="#FC740C" transform="translate(0,0)"/>
<path d="" fill="#FE8610" transform="translate(0,0)"/>
<path d="" fill="#F83F01" transform="translate(0,0)"/>
<path d="" fill="#F94302" transform="translate(0,0)"/>
<path d="" fill="#FA5204" transform="translate(0,0)"/>
<path d="" fill="#FC6307" transform="translate(0,0)"/>
<path d="" fill="#FE8E12" transform="translate(0,0)"/>
<path d="" fill="#FDA018" transform="translate(0,0)"/>
<path d="" fill="#F93F01" transform="translate(0,0)"/>
<path d="" fill="#FA5804" transform="translate(0,0)"/>
<path d="" fill="#FD8911" transform="translate(0,0)"/>
<path d="" fill="#F83C01" transform="translate(0,0)"/>
<path d="" fill="#FA4902" transform="translate(0,0)"/>
<path d="" fill="#FE8510" transform="translate(0,0)"/>
<path d="" fill="#FD8B12" transform="translate(0,0)"/>
<path d="" fill="#FD8E12" transform="translate(0,0)"/>
<path d="" fill="#FCA418" transform="translate(0,0)"/>
<path d="" fill="#F83700" transform="translate(0,0)"/>
<path d="" fill="#F83600" transform="translate(0,0)"/>
<path d="" fill="#FD700B" transform="translate(0,0)"/>
<path d="" fill="#FD750C" transform="translate(0,0)"/>
<path d="" fill="#FD9013" transform="translate(0,0)"/>
<path d="" fill="#F83600" transform="translate(0,0)"/>
<path d="" fill="#FD790C" transform="translate(0,0)"/>
<path d="" fill="#FD820F" transform="translate(0,0)"/>
<path d="" fill="#FD9F17" transform="translate(0,0)"/>
<path d="" fill="#FB5B05" transform="translate(0,0)"/>
<path d="" fill="#FC6006" transform="translate(0,0)"/>
<path d="" fill="#FC6C09" transform="translate(0,0)"/>
<path d="" fill="#FD9F16" transform="translate(0,0)"/>
<path d="" fill="#FC720B" transform="translate(0,0)"/>
<path d="" fill="#FE8C12" transform="translate(0,0)"/>
<path d="" fill="#F83600" transform="translate(0,0)"/>
<path d="" fill="#F94001" transform="translate(0,0)"/>
<path d="" fill="#FD8912" transform="translate(0,0)"/>
<path d="" fill="#F83600" transform="translate(0,0)"/>
<path d="" fill="#F83600" transform="translate(0,0)"/>
<path d="" fill="#F94202" transform="translate(0,0)"/>
<path d="" fill="#FA4F03" transform="translate(0,0)"/>
<path d="" fill="#FE8E13" transform="translate(0,0)"/>
<path d="" fill="#FC6407" transform="translate(0,0)"/>
<path d="" fill="#FD790C" transform="translate(0,0)"/>
<path d="" fill="#FD9D16" transform="translate(0,0)"/>
<path d="" fill="#F93B01" transform="translate(0,0)"/>
<path d="" fill="#FB6007" transform="translate(0,0)"/>
<path d="" fill="#FB5303" transform="translate(0,0)"/>
<path d="" fill="#F83600" transform="translate(0,0)"/>
<path d="" fill="#F94702" transform="translate(0,0)"/>
<path d="" fill="#FC6909" transform="translate(0,0)"/>
<path d="" fill="#FD8B11" transform="translate(0,0)"/>
<path d="" fill="#FDA117" transform="translate(0,0)"/>
<path d="" fill="#FB5A05" transform="translate(0,0)"/>
<path d="" fill="#F83700" transform="translate(0,0)"/>
<path d="" fill="#FA6107" transform="translate(0,0)"/>
<path d="" fill="#FB6A09" transform="translate(0,0)"/>
<path d="" fill="#FD7A0D" transform="translate(0,0)"/>
<path d="" fill="#FC7B0D" transform="translate(0,0)"/>
<path d="" fill="#FC8510" transform="translate(0,0)"/>
<path d="" fill="#FE8D12" transform="translate(0,0)"/>
<path d="" fill="#FD9414" transform="translate(0,0)"/>
<path d="" fill="#FD9915" transform="translate(0,0)"/>
<path d="" fill="#FD7E0F" transform="translate(0,0)"/>
<path d="" fill="#FE9815" transform="translate(0,0)"/>
<path d="" fill="#FE9E16" transform="translate(0,0)"/>
<path d="" fill="#F83600" transform="translate(0,0)"/>
<path d="" fill="#FB5605" transform="translate(0,0)"/>
<path d="" fill="#FA5705" transform="translate(0,0)"/>
<path d="" fill="#FC760C" transform="translate(0,0)"/>
<path d="" fill="#FE9314" transform="translate(0,0)"/>
<path d="" fill="#F83E01" transform="translate(0,0)"/>
<path d="" fill="#FDA518" transform="translate(0,0)"/>
<path d="" fill="#F94301" transform="translate(0,0)"/>
<path d="" fill="#FE810F" transform="translate(0,0)"/>
<path d="" fill="#FD9E17" transform="translate(0,0)"/>
<path d="" fill="#FD9E16" transform="translate(0,0)"/>
<path d="" fill="#FCA618" transform="translate(0,0)"/>
<path d="" fill="#FDA91A" transform="translate(0,0)"/>
<path d="" fill="#F83600" transform="translate(0,0)"/>
<path d="" fill="#F83800" transform="translate(0,0)"/>
<path d="" fill="#F94301" transform="translate(0,0)"/>
<path d="" fill="#FD710B" transform="translate(0,0)"/>
<path d="" fill="#FD8410" transform="translate(0,0)"/>
<path d="" fill="#FD9D16" transform="translate(0,0)"/>
<path d="" fill="#FD7D0E" transform="translate(0,0)"/>
<path d="" fill="#FD8D12" transform="translate(0,0)"/>
<path d="" fill="#F94802" transform="translate(0,0)"/>
<path d="" fill="#FD7C0E" transform="translate(0,0)"/>
<path d="" fill="#FD9F17" transform="translate(0,0)"/>
<path d="" fill="#FB5504" transform="translate(0,0)"/>
<path d="" fill="#FB5A05" transform="translate(0,0)"/>
<path d="" fill="#FD710B" transform="translate(0,0)"/>
<path d="" fill="#FE820F" transform="translate(0,0)"/>
<path d="" fill="#FEA919" transform="translate(0,0)"/>
<path d="" fill="#F83901" transform="translate(0,0)"/>
<path d="" fill="#FC6408" transform="translate(0,0)"/>
<path d="" fill="#FC700A" transform="translate(0,0)"/>
<path d="" fill="#FDA418" transform="translate(0,0)"/>
<path d="" fill="#F93A00" transform="translate(0,0)"/>
<path d="" fill="#F94501" transform="translate(0,0)"/>
<path d="" fill="#F94702" transform="translate(0,0)"/>
<path d="" fill="#FB6407" transform="translate(0,0)"/>
<path d="" fill="#FDA819" transform="translate(0,0)"/>
<path d="" fill="#F83600" transform="translate(0,0)"/>
<path d="" fill="#FB5404" transform="translate(0,0)"/>
<path d="" fill="#FD770C" transform="translate(0,0)"/>
<path d="" fill="#FCA217" transform="translate(0,0)"/>
<path d="" fill="#FB6608" transform="translate(0,0)"/>
<path d="" fill="#FC7F0F" transform="translate(0,0)"/>
<path d="" fill="#FD8C12" transform="translate(0,0)"/>
<path d="" fill="#FEA919" transform="translate(0,0)"/>
<path d="" fill="#F83900" transform="translate(0,0)"/>
<path d="" fill="#FB6007" transform="translate(0,0)"/>
<path d="" fill="#FB6909" transform="translate(0,0)"/>
<path d="" fill="#FE9814" transform="translate(0,0)"/>
<path d="" fill="#FE830F" transform="translate(0,0)"/>
<path d="" fill="#FD760C" transform="translate(0,0)"/>
<path d="" fill="#FD8710" transform="translate(0,0)"/>
<path d="" fill="#FD9E17" transform="translate(0,0)"/>
<path d="" fill="#F83600" transform="translate(0,0)"/>
<path d="" fill="#FA4802" transform="translate(0,0)"/>
<path d="" fill="#FE8D12" transform="translate(0,0)"/>
<path d="" fill="#FE9D16" transform="translate(0,0)"/>
<path d="" fill="#F83600" transform="translate(0,0)"/>
<path d="" fill="#FC5C06" transform="translate(0,0)"/>
<path d="" fill="#FD720B" transform="translate(0,0)"/>
<path d="" fill="#F93F01" transform="translate(0,0)"/>
<path d="" fill="#FA5A05" transform="translate(0,0)"/>
<path d="" fill="#FD8E13" transform="translate(0,0)"/>
<path d="" fill="#FD9514" transform="translate(0,0)"/>
<path d="" fill="#FE9B15" transform="translate(0,0)"/>
<path d="" fill="#FD9F17" transform="translate(0,0)"/>
<path d="" fill="#FDA618" transform="translate(0,0)"/>
<path d="" fill="#FC6308" transform="translate(0,0)"/>
<path d="" fill="#FD9313" transform="translate(0,0)"/>
<path d="" fill="#FD9F17" transform="translate(0,0)"/>
<path d="" fill="#FDAB1A" transform="translate(0,0)"/>
<path d="" fill="#F94402" transform="translate(0,0)"/>
<path d="" fill="#F94D03" transform="translate(0,0)"/>
<path d="" fill="#FD7C0E" transform="translate(0,0)"/>
<path d="" fill="#FE8710" transform="translate(0,0)"/>
<path d="" fill="#FD6E0B" transform="translate(0,0)"/>
<path d="" fill="#FD8310" transform="translate(0,0)"/>
<path d="" fill="#FDA018" transform="translate(0,0)"/>
<path d="" fill="#FDA919" transform="translate(0,0)"/>
<path d="" fill="#F93C00" transform="translate(0,0)"/>
<path d="" fill="#F84802" transform="translate(0,0)"/>
<path d="" fill="#F95104" transform="translate(0,0)"/>
<path d="" fill="#FD810F" transform="translate(0,0)"/>
<path d="" fill="#FD8710" transform="translate(0,0)"/>
<path d="" fill="#FE9213" transform="translate(0,0)"/>
<path d="" fill="#FE9D17" transform="translate(0,0)"/>
<path d="" fill="#F94201" transform="translate(0,0)"/>
<path d="" fill="#FB5C06" transform="translate(0,0)"/>
<path d="" fill="#FD9214" transform="translate(0,0)"/>
<path d="" fill="#FD9715" transform="translate(0,0)"/>
<path d="" fill="#FA4702" transform="translate(0,0)"/>
<path d="" fill="#FB6508" transform="translate(0,0)"/>
<path d="" fill="#FC6608" transform="translate(0,0)"/>
<path d="" fill="#FD9C15" transform="translate(0,0)"/>
<path d="" fill="#F94401" transform="translate(0,0)"/>
<path d="" fill="#FC770D" transform="translate(0,0)"/>
<path d="" fill="#FD9514" transform="translate(0,0)"/>
<path d="" fill="#FE9915" transform="translate(0,0)"/>
<path d="" fill="#F94101" transform="translate(0,0)"/>
<path d="" fill="#F94C02" transform="translate(0,0)"/>
<path d="" fill="#FB6608" transform="translate(0,0)"/>
<path d="" fill="#FA5404" transform="translate(0,0)"/>
<path d="" fill="#FCA719" transform="translate(0,0)"/>
<path d="" fill="#F83800" transform="translate(0,0)"/>
<path d="" fill="#F83C00" transform="translate(0,0)"/>
<path d="" fill="#F83600" transform="translate(0,0)"/>
<path d="" fill="#FB5804" transform="translate(0,0)"/>
<path d="" fill="#FB5A05" transform="translate(0,0)"/>
<path d="" fill="#FD7B0E" transform="translate(0,0)"/>
<path d="" fill="#FD8610" transform="translate(0,0)"/>
<path d="" fill="#FB5404" transform="translate(0,0)"/>
<path d="" fill="#FB5905" transform="translate(0,0)"/>
<path d="" fill="#FE9915" transform="translate(0,0)"/>
<path d="" fill="#FD9C16" transform="translate(0,0)"/>
<path d="" fill="#FC5D06" transform="translate(0,0)"/>
<path d="" fill="#FE9A15" transform="translate(0,0)"/>
<path d="" fill="#FEA619" transform="translate(0,0)"/>
<path d="" fill="#F94301" transform="translate(0,0)"/>
<path d="" fill="#FA4903" transform="translate(0,0)"/>
<path d="" fill="#FD8510" transform="translate(0,0)"/>
<path d="" fill="#FE9B16" transform="translate(0,0)"/>
<path d="" fill="#FEA418" transform="translate(0,0)"/>
<path d="" fill="#FCA418" transform="translate(0,0)"/>
<path d="" fill="#FCA619" transform="translate(0,0)"/>
<path d="" fill="#F83700" transform="translate(0,0)"/>
<path d="" fill="#FC5F06" transform="translate(0,0)"/>
<path d="" fill="#FD6809" transform="translate(0,0)"/>
<path d="" fill="#FB710B" transform="translate(0,0)"/>
<path d="" fill="#FD8611" transform="translate(0,0)"/>
<path d="" fill="#FE8611" transform="translate(0,0)"/>
<path d="" fill="#FD8710" transform="translate(0,0)"/>
<path d="" fill="#FD9F16" transform="translate(0,0)"/>
<path d="" fill="#FDA519" transform="translate(0,0)"/>
<path d="" fill="#F83600" transform="translate(0,0)"/>
<path d="" fill="#FA4902" transform="translate(0,0)"/>
<path d="" fill="#FA4D03" transform="translate(0,0)"/>
<path d="" fill="#FD9614" transform="translate(0,0)"/>
<path d="" fill="#FDA218" transform="translate(0,0)"/>
<path d="" fill="#F83600" transform="translate(0,0)"/>
<path d="" fill="#F94703" transform="translate(0,0)"/>
<path d="" fill="#FA6006" transform="translate(0,0)"/>
<path d="" fill="#FD9A16" transform="translate(0,0)"/>
<path d="" fill="#F83600" transform="translate(0,0)"/>
<path d="" fill="#FD8A12" transform="translate(0,0)"/>
<path d="" fill="#FCAA19" transform="translate(0,0)"/>
<path d="" fill="#F93B01" transform="translate(0,0)"/>
<path d="" fill="#FD8B12" transform="translate(0,0)"/>
<path d="" fill="#F83600" transform="translate(0,0)"/>
<path d="" fill="#F83600" transform="translate(0,0)"/>
<path d="" fill="#F83800" transform="translate(0,0)"/>
<path d="" fill="#FC700B" transform="translate(0,0)"/>
<path d="" fill="#FE8A11" transform="translate(0,0)"/>
<path d="" fill="#F94902" transform="translate(0,0)"/>
<path d="" fill="#FB6408" transform="translate(0,0)"/>
<path d="" fill="#FD6F0A" transform="translate(0,0)"/>
<path d="" fill="#FD9113" transform="translate(0,0)"/>
<path d="" fill="#FD9F17" transform="translate(0,0)"/>
<path d="" fill="#FCA418" transform="translate(0,0)"/>
<path d="" fill="#F83B01" transform="translate(0,0)"/>
<path d="" fill="#FD7D0E" transform="translate(0,0)"/>
<path d="" fill="#F94702" transform="translate(0,0)"/>
<path d="" fill="#FD9614" transform="translate(0,0)"/>
<path d="" fill="#F93A00" transform="translate(0,0)"/>
<path d="" fill="#F94001" transform="translate(0,0)"/>
<path d="" fill="#F83600" transform="translate(0,0)"/>
<path d="" fill="#FA5905" transform="translate(0,0)"/>
<path d="" fill="#F94201" transform="translate(0,0)"/>
<path d="" fill="#FB5F06" transform="translate(0,0)"/>
<path d="" fill="#FC7D0E" transform="translate(0,0)"/>
<path d="" fill="#FD9414" transform="translate(0,0)"/>
<path d="" fill="#FD9514" transform="translate(0,0)"/>
<path d="" fill="#FD9715" transform="translate(0,0)"/>
<path d="" fill="#FD9D16" transform="translate(0,0)"/>
<path d="" fill="#FCA518" transform="translate(0,0)"/>
<path d="" fill="#FDA919" transform="translate(0,0)"/>
<path d="" fill="#F93F01" transform="translate(0,0)"/>
<path d="" fill="#F94402" transform="translate(0,0)"/>
<path d="" fill="#FA4502" transform="translate(0,0)"/>
<path d="" fill="#FA4602" transform="translate(0,0)"/>
<path d="" fill="#FD6B09" transform="translate(0,0)"/>
<path d="" fill="#F83B00" transform="translate(0,0)"/>
<path d="" fill="#F84B02" transform="translate(0,0)"/>
<path d="" fill="#FA4D03" transform="translate(0,0)"/>
<path d="" fill="#FB5E06" transform="translate(0,0)"/>
<path d="" fill="#FDA217" transform="translate(0,0)"/>
<path d="" fill="#FA4B02" transform="translate(0,0)"/>
<path d="" fill="#FD6909" transform="translate(0,0)"/>
<path d="" fill="#FD8611" transform="translate(0,0)"/>
<path d="" fill="#FD9514" transform="translate(0,0)"/>
<path d="" fill="#F83600" transform="translate(0,0)"/>
<path d="" fill="#FD8510" transform="translate(0,0)"/>
<path d="" fill="#F83600" transform="translate(0,0)"/>
<path d="" fill="#FA4903" transform="translate(0,0)"/>
<path d="" fill="#FB5F07" transform="translate(0,0)"/>
<path d="" fill="#FB5704" transform="translate(0,0)"/>
<path d="" fill="#FD7C0E" transform="translate(0,0)"/>
<path d="" fill="#FC7E0E" transform="translate(0,0)"/>
<path d="" fill="#FD9E16" transform="translate(0,0)"/>
<path d="" fill="#F83600" transform="translate(0,0)"/>
<path d="" fill="#FD810F" transform="translate(0,0)"/>
<path d="" fill="#FDA819" transform="translate(0,0)"/>
<path d="" fill="#F83600" transform="translate(0,0)"/>
<path d="" fill="#F83900" transform="translate(0,0)"/>
<path d="" fill="#F84001" transform="translate(0,0)"/>
<path d="" fill="#FB5304" transform="translate(0,0)"/>
<path d="" fill="#FD6809" transform="translate(0,0)"/>
<path d="" fill="#FC6A09" transform="translate(0,0)"/>
<path d="" fill="#FD9C15" transform="translate(0,0)"/>
<path d="" fill="#F83600" transform="translate(0,0)"/>
<path d="" fill="#F83E01" transform="translate(0,0)"/>
<path d="" fill="#FD7D0E" transform="translate(0,0)"/>
<path d="" fill="#FE7E0E" transform="translate(0,0)"/>
<path d="" fill="#FD8E12" transform="translate(0,0)"/>
<path d="" fill="#FD9715" transform="translate(0,0)"/>
<path d="" fill="#FD9C16" transform="translate(0,0)"/>
<path d="" fill="#FDA017" transform="translate(0,0)"/>
<path d="" fill="#F83600" transform="translate(0,0)"/>
<path d="" fill="#F83700" transform="translate(0,0)"/>
<path d="" fill="#F83A00" transform="translate(0,0)"/>
<path d="" fill="#F83C01" transform="translate(0,0)"/>
<path d="" fill="#FC6608" transform="translate(0,0)"/>
<path d="" fill="#FD9C16" transform="translate(0,0)"/>
<path d="" fill="#F94101" transform="translate(0,0)"/>
<path d="" fill="#FB730B" transform="translate(0,0)"/>
<path d="" fill="#FE830F" transform="translate(0,0)"/>
<path d="" fill="#F83C01" transform="translate(0,0)"/>
<path d="" fill="#FA5705" transform="translate(0,0)"/>
<path d="" fill="#FC6B0A" transform="translate(0,0)"/>
<path d="" fill="#F83600" transform="translate(0,0)"/>
<path d="" fill="#F94401" transform="translate(0,0)"/>
<path d="" fill="#FD7F0E" transform="translate(0,0)"/>
<path d="" fill="#FC8410" transform="translate(0,0)"/>
<path d="" fill="#FE9714" transform="translate(0,0)"/>
<path d="" fill="#FCAD1A" transform="translate(0,0)"/>
<path d="" fill="#F83600" transform="translate(0,0)"/>
<path d="" fill="#F93B01" transform="translate(0,0)"/>
<path d="" fill="#F94502" transform="translate(0,0)"/>
<path d="" fill="#FD6E0B" transform="translate(0,0)"/>
<path d="" fill="#FDA118" transform="translate(0,0)"/>
<path d="" fill="#FDA81A" transform="translate(0,0)"/>
<path d="" fill="#F84001" transform="translate(0,0)"/>
<path d="" fill="#FB6407" transform="translate(0,0)"/>
<path d="" fill="#FD6F0B" transform="translate(0,0)"/>
<path d="" fill="#FC790D" transform="translate(0,0)"/>
<path d="" fill="#F94702" transform="translate(0,0)"/>
<path d="" fill="#FC700B" transform="translate(0,0)"/>
<path d="" fill="#FD720B" transform="translate(0,0)"/>
<path d="" fill="#FE9814" transform="translate(0,0)"/>
<path d="" fill="#F93A00" transform="translate(0,0)"/>
<path d="" fill="#FD8310" transform="translate(0,0)"/>
<path d="" fill="#F83600" transform="translate(0,0)"/>
<path d="" fill="#FB5804" transform="translate(0,0)"/>
<path d="" fill="#FB6007" transform="translate(0,0)"/>
<path d="" fill="#FD7E0E" transform="translate(0,0)"/>
<path d="" fill="#FE8711" transform="translate(0,0)"/>
<path d="" fill="#FD8F12" transform="translate(0,0)"/>
<path d="" fill="#FEA719" transform="translate(0,0)"/>
<path d="" fill="#F83800" transform="translate(0,0)"/>
<path d="" fill="#F83B01" transform="translate(0,0)"/>
<path d="" fill="#F83E00" transform="translate(0,0)"/>
<path d="" fill="#F94602" transform="translate(0,0)"/>
<path d="" fill="#F84A02" transform="translate(0,0)"/>
<path d="" fill="#FA5004" transform="translate(0,0)"/>
<path d="" fill="#FA5504" transform="translate(0,0)"/>
<path d="" fill="#FE9915" transform="translate(0,0)"/>
<path d="" fill="#FDAD1B" transform="translate(0,0)"/>
<path d="" fill="#F83701" transform="translate(0,0)"/>
<path d="" fill="#FB6007" transform="translate(0,0)"/>
<path d="" fill="#FC6307" transform="translate(0,0)"/>
<path d="" fill="#FB6608" transform="translate(0,0)"/>
<path d="" fill="#FD780C" transform="translate(0,0)"/>
<path d="" fill="#FA6307" transform="translate(0,0)"/>
<path d="" fill="#FD8C11" transform="translate(0,0)"/>
<path d="" fill="#FD8D12" transform="translate(0,0)"/>
<path d="" fill="#FD8F12" transform="translate(0,0)"/>
<path d="" fill="#FE9614" transform="translate(0,0)"/>
<path d="" fill="#FD9D16" transform="translate(0,0)"/>
<path d="" fill="#FD9F16" transform="translate(0,0)"/>
<path d="" fill="#FDAA19" transform="translate(0,0)"/>
<path d="" fill="#F94402" transform="translate(0,0)"/>
<path d="" fill="#F95104" transform="translate(0,0)"/>
<path d="" fill="#FB6307" transform="translate(0,0)"/>
<path d="" fill="#FDA318" transform="translate(0,0)"/>
<path d="" fill="#FCAB19" transform="translate(0,0)"/>
<path d="" fill="#F83600" transform="translate(0,0)"/>
<path d="" fill="#F83700" transform="translate(0,0)"/>
<path d="" fill="#FC6C09" transform="translate(0,0)"/>
<path d="" fill="#FD6D0A" transform="translate(0,0)"/>
<path d="" fill="#FD8A11" transform="translate(0,0)"/>
<path d="" fill="#FE9915" transform="translate(0,0)"/>
<path d="" fill="#FE9F16" transform="translate(0,0)"/>
<path d="" fill="#FDA017" transform="translate(0,0)"/>
<path d="" fill="#FDA919" transform="translate(0,0)"/>
<path d="" fill="#FA5003" transform="translate(0,0)"/>
<path d="" fill="#FC6B09" transform="translate(0,0)"/>
<path d="" fill="#FD8811" transform="translate(0,0)"/>
<path d="" fill="#FD9B16" transform="translate(0,0)"/>
<path d="" fill="#FB5D06" transform="translate(0,0)"/>
<path d="" fill="#FB6607" transform="translate(0,0)"/>
<path d="" fill="#FDA81A" transform="translate(0,0)"/>
<path d="" fill="#FB5303" transform="translate(0,0)"/>
<path d="" fill="#FB5705" transform="translate(0,0)"/>
<path d="" fill="#F94001" transform="translate(0,0)"/>
<path d="" fill="#FC790C" transform="translate(0,0)"/>
<path d="" fill="#FD9F17" transform="translate(0,0)"/>
<path d="" fill="#FDA217" transform="translate(0,0)"/>
<path d="" fill="#FC6D0A" transform="translate(0,0)"/>
<path d="" fill="#FE9314" transform="translate(0,0)"/>
<path d="" fill="#FB6B09" transform="translate(0,0)"/>
<path d="" fill="#FE8310" transform="translate(0,0)"/>
<path d="" fill="#FD9414" transform="translate(0,0)"/>
<path d="" fill="#FDA418" transform="translate(0,0)"/>
<path d="" fill="#FCA719" transform="translate(0,0)"/>
<path d="" fill="#F84001" transform="translate(0,0)"/>
<path d="" fill="#FE9614" transform="translate(0,0)"/>
<path d="" fill="#F94101" transform="translate(0,0)"/>
<path d="" fill="#FB5D06" transform="translate(0,0)"/>
<path d="" fill="#FB5F06" transform="translate(0,0)"/>
<path d="" fill="#F83C00" transform="translate(0,0)"/>
<path d="" fill="#F93D01" transform="translate(0,0)"/>
<path d="" fill="#FD9514" transform="translate(0,0)"/>
<path d="" fill="#FD9915" transform="translate(0,0)"/>
<path d="" fill="#FB5E06" transform="translate(0,0)"/>
<path d="" fill="#F83600" transform="translate(0,0)"/>
<path d="" fill="#F94001" transform="translate(0,0)"/>
<path d="" fill="#FC780D" transform="translate(0,0)"/>
<path d="" fill="#FCA719" transform="translate(0,0)"/>
<path d="" fill="#FC700A" transform="translate(0,0)"/>
<path d="" fill="#FD720B" transform="translate(0,0)"/>
<path d="" fill="#FE9314" transform="translate(0,0)"/>
<path d="" fill="#FDA218" transform="translate(0,0)"/>
<path d="" fill="#FC6608" transform="translate(0,0)"/>
<path d="" fill="#F93C00" transform="translate(0,0)"/>
<path d="" fill="#FD9213" transform="translate(0,0)"/>
<path d="" fill="#FCAA19" transform="translate(0,0)"/>
<path d="" fill="#F83700" transform="translate(0,0)"/>
<path d="" fill="#F83600" transform="translate(0,0)"/>
<path d="" fill="#F93D00" transform="translate(0,0)"/>
<path d="" fill="#FA4903" transform="translate(0,0)"/>
<path d="" fill="#FD6F0A" transform="translate(0,0)"/>
<path d="" fill="#FCA819" transform="translate(0,0)"/>
<path d="" fill="#F84201" transform="translate(0,0)"/>
<path d="" fill="#F83800" transform="translate(0,0)"/>
<path d="" fill="#FD9F16" transform="translate(0,0)"/>
<path d="" fill="#F83B00" transform="translate(0,0)"/>
<path d="" fill="#FDA719" transform="translate(0,0)"/>
<path d="" fill="#FDAD1B" transform="translate(0,0)"/>
<path d="" fill="#FA4802" transform="translate(0,0)"/>
<path d="" fill="#F83700" transform="translate(0,0)"/>
<path d="" fill="#F93E01" transform="translate(0,0)"/>
<path d="" fill="#FDA317" transform="translate(0,0)"/>
<path d="" fill="#FD9B15" transform="translate(0,0)"/>
<path d="" fill="#FD9D16" transform="translate(0,0)"/>
<path d="" fill="#FDAA1A" transform="translate(0,0)"/>
<path d="" fill="#FCA518" transform="translate(0,0)"/>
<path d="" fill="#FDA819" transform="translate(0,0)"/>
<path d="" fill="#FEAC1A" transform="translate(0,0)"/>
<path d="" fill="#F83600" transform="translate(0,0)"/>
<path d="" fill="#F83800" transform="translate(0,0)"/>
<path d="" fill="#F94802" transform="translate(0,0)"/>
<path d="" fill="#FD9B16" transform="translate(0,0)"/>
<path d="" fill="#FDA618" transform="translate(0,0)"/>
<path d="" fill="#FDAB1A" transform="translate(0,0)"/>
<path d="" fill="#FDAE1A" transform="translate(0,0)"/>
<path d="" fill="#FE9A15" transform="translate(0,0)"/>
<path d="" fill="#F83900" transform="translate(0,0)"/>
<path d="" fill="#F94301" transform="translate(0,0)"/>
<path d="" fill="#F94402" transform="translate(0,0)"/>
<path d="" fill="#FE9E16" transform="translate(0,0)"/>
<path d="" fill="#F83600" transform="translate(0,0)"/>
<path d="" fill="#F83600" transform="translate(0,0)"/>
<path d="" fill="#F83600" transform="translate(0,0)"/>
<path d="" fill="#FE9915" transform="translate(0,0)"/>
<path d="" fill="#FD9A15" transform="translate(0,0)"/>
<path d="" fill="#FDA518" transform="translate(0,0)"/>
<path d="" fill="#FDAD1A" transform="translate(0,0)"/>
<path d="" fill="#F83900" transform="translate(0,0)"/>
<path d="" fill="#FE9F17" transform="translate(0,0)"/>
<path d="" fill="#F73600" transform="translate(0,0)"/>
<path d="" fill="#F94402" transform="translate(0,0)"/>
<path d="" fill="#FE9916" transform="translate(0,0)"/>
<path d="" fill="#F83F00" transform="translate(0,0)"/>
<path d="" fill="#F94302" transform="translate(0,0)"/>
<path d="" fill="#FA4602" transform="translate(0,0)"/>
<path d="" fill="#FDA418" transform="translate(0,0)"/>
<path d="" fill="#F83600" transform="translate(0,0)"/>
<path d="" fill="#FD9E16" transform="translate(0,0)"/>
<path d="" fill="#F93D01" transform="translate(0,0)"/>
<path d="" fill="#FD9D16" transform="translate(0,0)"/>
<path d="" fill="#F83700" transform="translate(0,0)"/>
<path d="" fill="#F94202" transform="translate(0,0)"/>
<path d="" fill="#F93E01" transform="translate(0,0)"/>
<path d="" fill="#FC9F16" transform="translate(0,0)"/>
<path d="" fill="#F83600" transform="translate(0,0)"/>
<path d="" fill="#FD9C16" transform="translate(0,0)"/>
<path d="" fill="#FDA618" transform="translate(0,0)"/>
<path d="" fill="#FD9D16" transform="translate(0,0)"/>
<path d="" fill="#F83600" transform="translate(0,0)"/>
<path d="" fill="#FDAC1A" transform="translate(0,0)"/>
<path d="" fill="#FD9F17" transform="translate(0,0)"/>
<path d="" fill="#F83800" transform="translate(0,0)"/>
<path d="" fill="#FCA819" transform="translate(0,0)"/>
<path d="" fill="#FD9F17" transform="translate(0,0)"/>
<path d="" fill="#FDAD1A" transform="translate(0,0)"/>
<path d="" fill="#FCAF1B" transform="translate(0,0)"/>
<path d="" fill="#F83600" transform="translate(0,0)"/>
<path d="" fill="#F94202" transform="translate(0,0)"/>
<path d="" fill="#F83600" transform="translate(0,0)"/>
<path d="" fill="#FCAB1A" transform="translate(0,0)"/>
<path d="" fill="#F94001" transform="translate(0,0)"/>
<path d="" fill="#F94301" transform="translate(0,0)"/>
<path d="" fill="#FD9F17" transform="translate(0,0)"/>
<path d="" fill="#FCA018" transform="translate(0,0)"/>
<path d="" fill="#FCAD1A" transform="translate(0,0)"/>
<path d="" fill="#F83600" transform="translate(0,0)"/>
<path d="" fill="#FCB01C" transform="translate(0,0)"/>
<path d="" fill="#FCA91A" transform="translate(0,0)"/>
<path d="" fill="#FDA919" transform="translate(0,0)"/>
<path d="" fill="#FDAE1A" transform="translate(0,0)"/>
<path d="" fill="#FDAE1B" transform="translate(0,0)"/>
<path d="" fill="#FDA618" transform="translate(0,0)"/>
<path d="" fill="#FCB01B" transform="translate(0,0)"/>
<path d="" fill="#FDA619" transform="translate(0,0)"/>
<path d="" fill="#FCA719" transform="translate(0,0)"/>
<path d="" fill="#FCB11B" transform="translate(0,0)"/>
<path d="" fill="#F83600" transform="translate(0,0)"/>
<path d="" fill="#F83600" transform="translate(0,0)"/>
<path d="" fill="#FCB01B" transform="translate(0,0)"/>
<path d="" fill="#FCAD1A" transform="translate(0,0)"/>
<path d="" fill="#FCAF1B" transform="translate(0,0)"/>
<path d="" fill="#FCAF1B" transform="translate(0,0)"/>
<path d="" fill="#FDAA1A" transform="translate(0,0)"/>
<path d="" fill="#FCAB1A" transform="translate(0,0)"/>
<path d="" fill="#F83600" transform="translate(0,0)"/>
<path d="" fill="#FCAB1A" transform="translate(0,0)"/>
<path d="" fill="#FCAC1A" transform="translate(0,0)"/>
<path d="" fill="#F83600" transform="translate(0,0)"/>
<path d="" fill="#FDA619" transform="translate(0,0)"/>
<path d="" fill="#F83600" transform="translate(0,0)"/>
<path d="" fill="#F83600" transform="translate(0,0)"/>
<path d="" fill="#F93A01" transform="translate(0,0)"/>
<path d="" fill="#FDA618" transform="translate(0,0)"/>
<path d="" fill="#F83B00" transform="translate(0,0)"/>
<path d="" fill="#FCA819" transform="translate(0,0)"/>
<path d="" fill="#FDAE1A" transform="translate(0,0)"/>
<path d="" fill="#FBB11B" transform="translate(0,0)"/>
<path d="" fill="#FCB11C" transform="translate(0,0)"/>
<path d="" fill="#F93900" transform="translate(0,0)"/>
<path d="" fill="#F83600" transform="translate(0,0)"/>
<path d="" fill="#F83700" transform="translate(0,0)"/>
<path d="" fill="#FCAD1A" transform="translate(0,0)"/>
<path d="" fill="#FCB11B" transform="translate(0,0)"/>
<path d="" fill="#F83A00" transform="translate(0,0)"/>
<path d="" fill="#FCAE1B" transform="translate(0,0)"/>
<path d="" fill="#FCAB1A" transform="translate(0,0)"/>
<path d="" fill="#F83600" transform="translate(0,0)"/>
<path d="" fill="#F83901" transform="translate(0,0)"/>
<path d="" fill="#F83800" transform="translate(0,0)"/>
<path d="" fill="#FCB31C" transform="translate(0,0)"/>
<path d="" fill="#F73700" transform="translate(0,0)"/>
<path d="" fill="#F93A00" transform="translate(0,0)"/>
<path d="" fill="#F83700" transform="translate(0,0)"/>
<path d="" fill="#FCAB1A" transform="translate(0,0)"/>
<path d="" fill="#FCAD1A" transform="translate(0,0)"/>
<path d="" fill="#FCB01C" transform="translate(0,0)"/>
<path d="" fill="#FCB21B" transform="translate(0,0)"/>
<path d="" fill="#FCB11B" transform="translate(0,0)"/>
<path d="" fill="#F93900" transform="translate(0,0)"/>
<path d="" fill="#FCAE1A" transform="translate(0,0)"/>
<path d="" fill="#F83800" transform="translate(0,0)"/>
<path d="" fill="#F93900" transform="translate(0,0)"/>
<path d="" fill="#FCAF1B" transform="translate(0,0)"/>
<path d="" fill="#F83600" transform="translate(0,0)"/>
<path d="" fill="#FDAE1B" transform="translate(0,0)"/>
<path d="" fill="#F83800" transform="translate(0,0)"/>
<path d="" fill="#F83701" transform="translate(0,0)"/>
<path d="" fill="#F83901" transform="translate(0,0)"/>
<path d="" fill="#F83900" transform="translate(0,0)"/>
<path d="" fill="#F83600" transform="translate(0,0)"/>
<path d="" fill="#FCB41C" transform="translate(0,0)"/>
<path d="" fill="#F83800" transform="translate(0,0)"/>
<path d="" fill="#FCB11C" transform="translate(0,0)"/>
<path d="" fill="#F93A00" transform="translate(0,0)"/>
<path d="" fill="#FCAF1B" transform="translate(0,0)"/>
<path d="" fill="#FCB01B" transform="translate(0,0)"/>
<path d="" fill="#F83700" transform="translate(0,0)"/>
<path d="" fill="#FCB01C" transform="translate(0,0)"/>
<path d="" fill="#FCB11B" transform="translate(0,0)"/>
<path d="" fill="#F83800" transform="translate(0,0)"/>
<path d="" fill="#FCB31C" transform="translate(0,0)"/>
<path d="" fill="#F83600" transform="translate(0,0)"/>
<path d="" fill="#F83A00" transform="translate(0,0)"/>
<path d="" fill="#F73600" transform="translate(0,0)"/>
<path d="" fill="#FCB31D" transform="translate(0,0)"/>
<path d="" fill="#FCB41C" transform="translate(0,0)"/>
<path d="" fill="#F83600" transform="translate(0,0)"/>
<path d="" fill="#FCB21C" transform="translate(0,0)"/>
<path d="" fill="#FAB51D" transform="translate(0,0)"/>
<path d="" fill="#FCB11B" transform="translate(0,0)"/>
<path d="" fill="#F83900" transform="translate(0,0)"/>
<path d="" fill="#F83B00" transform="translate(0,0)"/>
<path d="" fill="#F93B00" transform="translate(0,0)"/>
<path d="" fill="#F83B00" transform="translate(0,0)"/>
<path d="" fill="#FCB01B" transform="translate(0,0)"/>
<path d="" fill="#FCB11B" transform="translate(0,0)"/>
<path d="" fill="#F83F01" transform="translate(0,0)"/>
<path d="" fill="#FBB11B" transform="translate(0,0)"/>
<path d="" fill="#F93E00" transform="translate(0,0)"/>
<path d="" fill="#F93F01" transform="translate(0,0)"/>
<path d="" fill="#FCB31D" transform="translate(0,0)"/>
<path d="" fill="#F83600" transform="translate(0,0)"/>
<path d="" fill="#F93C01" transform="translate(0,0)"/>
<path d="" fill="#FCB31C" transform="translate(0,0)"/>
<path d="" fill="#FCB01B" transform="translate(0,0)"/>
<path d="" fill="#FCB21B" transform="translate(0,0)"/>
<path d="" fill="#FCB41C" transform="translate(0,0)"/>
<path d="" fill="#FCB11B" transform="translate(0,0)"/>
<path d="" fill="#FDAD1B" transform="translate(0,0)"/>
<path d="" fill="#FCB21B" transform="translate(0,0)"/>
<path d="" fill="#FCB01B" transform="translate(0,0)"/>
<path d="" fill="#F83E01" transform="translate(0,0)"/>
<path d="" fill="#FCB51D" transform="translate(0,0)"/>
<path d="" fill="#F93F01" transform="translate(0,0)"/>
<path d="" fill="#FCB01B" transform="translate(0,0)"/>
<path d="" fill="#F94001" transform="translate(0,0)"/>
<path d="" fill="#F94402" transform="translate(0,0)"/>
<path d="" fill="#F94502" transform="translate(0,0)"/>
<path d="" fill="#FCB31C" transform="translate(0,0)"/>
<path d="" fill="#F83600" transform="translate(0,0)"/>
<path d="" fill="#FCAC1A" transform="translate(0,0)"/>
<path d="" fill="#FCAA1A" transform="translate(0,0)"/>
<path d="" fill="#FDAB1A" transform="translate(0,0)"/>
<path d="" fill="#F84101" transform="translate(0,0)"/>
<path d="" fill="#FCAC1B" transform="translate(0,0)"/>
<path d="" fill="#FDA91A" transform="translate(0,0)"/>
<path d="" fill="#FCB61D" transform="translate(0,0)"/>
<path d="" fill="#FA4902" transform="translate(0,0)"/>
<path d="" fill="#FA4A02" transform="translate(0,0)"/>
<path d="" fill="#F94A02" transform="translate(0,0)"/>
<path d="" fill="#FDA719" transform="translate(0,0)"/>
<path d="" fill="#FCB21C" transform="translate(0,0)"/>
<path d="" fill="#FBB71D" transform="translate(0,0)"/>
<path d="" fill="#FA4B03" transform="translate(0,0)"/>
<path d="" fill="#F94902" transform="translate(0,0)"/>
<path d="" fill="#FA4E04" transform="translate(0,0)"/>
<path d="" fill="#FDAB1A" transform="translate(0,0)"/>
<path d="" fill="#FDAE1A" transform="translate(0,0)"/>
<path d="" fill="#FA4702" transform="translate(0,0)"/>
<path d="" fill="#FA4E03" transform="translate(0,0)"/>
<path d="" fill="#FDA719" transform="translate(0,0)"/>
<path d="" fill="#FDA919" transform="translate(0,0)"/>
<path d="" fill="#FBB21B" transform="translate(0,0)"/>
<path d="" fill="#F94302" transform="translate(0,0)"/>
<path d="" fill="#FDA317" transform="translate(0,0)"/>
<path d="" fill="#FDA518" transform="translate(0,0)"/>
<path d="" fill="#FA5103" transform="translate(0,0)"/>
<path d="" fill="#FDA419" transform="translate(0,0)"/>
<path d="" fill="#FCAE1B" transform="translate(0,0)"/>
<path d="" fill="#FCB01B" transform="translate(0,0)"/>
<path d="" fill="#F93C01" transform="translate(0,0)"/>
<path d="" fill="#FDA418" transform="translate(0,0)"/>
<path d="" fill="#FCA819" transform="translate(0,0)"/>
<path d="" fill="#FDA618" transform="translate(0,0)"/>
<path d="" fill="#FDB01B" transform="translate(0,0)"/>
<path d="" fill="#FB5304" transform="translate(0,0)"/>
<path d="" fill="#FCB51D" transform="translate(0,0)"/>
<path d="" fill="#FA4C03" transform="translate(0,0)"/>
<path d="" fill="#FA4D03" transform="translate(0,0)"/>
<path d="" fill="#FA4E03" transform="translate(0,0)"/>
<path d="" fill="#FDA017" transform="translate(0,0)"/>
<path d="" fill="#F94302" transform="translate(0,0)"/>
<path d="" fill="#FD9D16" transform="translate(0,0)"/>
<path d="" fill="#FDA91A" transform="translate(0,0)"/>
<path d="" fill="#FDA719" transform="translate(0,0)"/>
<path d="" fill="#FCAD1A" transform="translate(0,0)"/>
<path d="" fill="#F84001" transform="translate(0,0)"/>
<path d="" fill="#FCB21C" transform="translate(0,0)"/>
<path d="" fill="#FA5804" transform="translate(0,0)"/>
<path d="" fill="#FD9916" transform="translate(0,0)"/>
<path d="" fill="#FDAC1A" transform="translate(0,0)"/>
<path d="" fill="#FCB51C" transform="translate(0,0)"/>
<path d="" fill="#F83900" transform="translate(0,0)"/>
<path d="" fill="#FB5C06" transform="translate(0,0)"/>
<path d="" fill="#FCB61D" transform="translate(0,0)"/>
<path d="" fill="#F94001" transform="translate(0,0)"/>
<path d="" fill="#FCAE1B" transform="translate(0,0)"/>
<path d="" fill="#FDA118" transform="translate(0,0)"/>
<path d="" fill="#FDA919" transform="translate(0,0)"/>
<path d="" fill="#F93F01" transform="translate(0,0)"/>
<path d="" fill="#F94201" transform="translate(0,0)"/>
<path d="" fill="#FB5E06" transform="translate(0,0)"/>
<path d="" fill="#FCAE1B" transform="translate(0,0)"/>
<path d="" fill="#FCB11C" transform="translate(0,0)"/>
<path d="" fill="#FCB31C" transform="translate(0,0)"/>
<path d="" fill="#FB5905" transform="translate(0,0)"/>
<path d="" fill="#FB6006" transform="translate(0,0)"/>
<path d="" fill="#FD9614" transform="translate(0,0)"/>
<path d="" fill="#FA5404" transform="translate(0,0)"/>
<path d="" fill="#FDA117" transform="translate(0,0)"/>
<path d="" fill="#FBB51C" transform="translate(0,0)"/>
<path d="" fill="#FCB01B" transform="translate(0,0)"/>
<path d="" fill="#F83800" transform="translate(0,0)"/>
<path d="" fill="#F94F04" transform="translate(0,0)"/>
<path d="" fill="#FD9114" transform="translate(0,0)"/>
<path d="" fill="#FCAA1A" transform="translate(0,0)"/>
<path d="" fill="#F94102" transform="translate(0,0)"/>
<path d="" fill="#F84D03" transform="translate(0,0)"/>
<path d="" fill="#FB6508" transform="translate(0,0)"/>
<path d="" fill="#FCB71D" transform="translate(0,0)"/>
<path d="" fill="#FE9C15" transform="translate(0,0)"/>
<path d="" fill="#FCA719" transform="translate(0,0)"/>
<path d="" fill="#FCAF1C" transform="translate(0,0)"/>
<path d="" fill="#F83800" transform="translate(0,0)"/>
<path d="" fill="#FB5505" transform="translate(0,0)"/>
<path d="" fill="#FEA318" transform="translate(0,0)"/>
<path d="" fill="#FDA318" transform="translate(0,0)"/>
<path d="" fill="#FDAB1A" transform="translate(0,0)"/>
<path d="" fill="#FA4D03" transform="translate(0,0)"/>
<path d="" fill="#FB5504" transform="translate(0,0)"/>
<path d="" fill="#FB5B05" transform="translate(0,0)"/>
<path d="" fill="#FB5C06" transform="translate(0,0)"/>
<path d="" fill="#FD6809" transform="translate(0,0)"/>
<path d="" fill="#FD8D12" transform="translate(0,0)"/>
<path d="" fill="#FCAF1B" transform="translate(0,0)"/>
<path d="" fill="#F93B01" transform="translate(0,0)"/>
<path d="" fill="#FC5A06" transform="translate(0,0)"/>
<path d="" fill="#FCA719" transform="translate(0,0)"/>
<path d="" fill="#F94001" transform="translate(0,0)"/>
<path d="" fill="#F94602" transform="translate(0,0)"/>
<path d="" fill="#FEA118" transform="translate(0,0)"/>
<path d="" fill="#FDA519" transform="translate(0,0)"/>
<path d="" fill="#FCAE1B" transform="translate(0,0)"/>
<path d="" fill="#FCB11C" transform="translate(0,0)"/>
<path d="" fill="#FEA017" transform="translate(0,0)"/>
<path d="" fill="#FB5805" transform="translate(0,0)"/>
<path d="" fill="#FA5B05" transform="translate(0,0)"/>
<path d="" fill="#FD8D12" transform="translate(0,0)"/>
<path d="" fill="#FD9915" transform="translate(0,0)"/>
<path d="" fill="#FD9D16" transform="translate(0,0)"/>
<path d="" fill="#FD9E16" transform="translate(0,0)"/>
<path d="" fill="#FA5805" transform="translate(0,0)"/>
<path d="" fill="#FD9013" transform="translate(0,0)"/>
<path d="" fill="#FCA819" transform="translate(0,0)"/>
<path d="" fill="#FA4B03" transform="translate(0,0)"/>
<path d="" fill="#F94E03" transform="translate(0,0)"/>
<path d="" fill="#FA5304" transform="translate(0,0)"/>
<path d="" fill="#FD9B15" transform="translate(0,0)"/>
<path d="" fill="#FA4F03" transform="translate(0,0)"/>
<path d="" fill="#FDAC1A" transform="translate(0,0)"/>
<path d="" fill="#FCB31C" transform="translate(0,0)"/>
<path d="" fill="#FA4B03" transform="translate(0,0)"/>
<path d="" fill="#FD9213" transform="translate(0,0)"/>
<path d="" fill="#F95505" transform="translate(0,0)"/>
<path d="" fill="#FC6D09" transform="translate(0,0)"/>
<path d="" fill="#FD8810" transform="translate(0,0)"/>
<path d="" fill="#FE8C12" transform="translate(0,0)"/>
<path d="" fill="#FD9614" transform="translate(0,0)"/>
<path d="" fill="#FD9B15" transform="translate(0,0)"/>
<path d="" fill="#FBB81D" transform="translate(0,0)"/>
<path d="" fill="#FC6007" transform="translate(0,0)"/>
<path d="" fill="#FB6307" transform="translate(0,0)"/>
<path d="" fill="#FE8711" transform="translate(0,0)"/>
<path d="" fill="#FE8E12" transform="translate(0,0)"/>
<path d="" fill="#F83900" transform="translate(0,0)"/>
<path d="" fill="#FA5003" transform="translate(0,0)"/>
<path d="" fill="#FD8B12" transform="translate(0,0)"/>
<path d="" fill="#F94101" transform="translate(0,0)"/>
<path d="" fill="#F94A03" transform="translate(0,0)"/>
<path d="" fill="#FD9E16" transform="translate(0,0)"/>
<path d="" fill="#FDAA1A" transform="translate(0,0)"/>
<path d="" fill="#FC700A" transform="translate(0,0)"/>
<path d="" fill="#FBB81D" transform="translate(0,0)"/>
<path d="" fill="#F84401" transform="translate(0,0)"/>
<path d="" fill="#FA4501" transform="translate(0,0)"/>
<path d="" fill="#FC6107" transform="translate(0,0)"/>
<path d="" fill="#FB6A08" transform="translate(0,0)"/>
<path d="" fill="#FCAA1A" transform="translate(0,0)"/>
<path d="" fill="#FB5805" transform="translate(0,0)"/>
<path d="" fill="#FB6207" transform="translate(0,0)"/>
<path d="" fill="#FA4402" transform="translate(0,0)"/>
<path d="" fill="#F94902" transform="translate(0,0)"/>
<path d="" fill="#FC6007" transform="translate(0,0)"/>
<path d="" fill="#FDA619" transform="translate(0,0)"/>
<path d="" fill="#F93E01" transform="translate(0,0)"/>
<path d="" fill="#FC700B" transform="translate(0,0)"/>
<path d="" fill="#FE8F13" transform="translate(0,0)"/>
<path d="" fill="#FD9C15" transform="translate(0,0)"/>
<path d="" fill="#FD9F17" transform="translate(0,0)"/>
<path d="" fill="#FB5605" transform="translate(0,0)"/>
<path d="" fill="#FDA117" transform="translate(0,0)"/>
<path d="" fill="#FB5103" transform="translate(0,0)"/>
<path d="" fill="#FA6407" transform="translate(0,0)"/>
<path d="" fill="#FD7B0E" transform="translate(0,0)"/>
<path d="" fill="#FD7D0E" transform="translate(0,0)"/>
<path d="" fill="#FEA518" transform="translate(0,0)"/>
<path d="" fill="#F83E00" transform="translate(0,0)"/>
<path d="" fill="#F94001" transform="translate(0,0)"/>
<path d="" fill="#FC6E0A" transform="translate(0,0)"/>
<path d="" fill="#FD7A0D" transform="translate(0,0)"/>
<path d="" fill="#FE9013" transform="translate(0,0)"/>
<path d="" fill="#FDA017" transform="translate(0,0)"/>
<path d="" fill="#FCA919" transform="translate(0,0)"/>
<path d="" fill="#FBB11C" transform="translate(0,0)"/>
<path d="" fill="#FD9013" transform="translate(0,0)"/>
<path d="" fill="#FD9B15" transform="translate(0,0)"/>
<path d="" fill="#F94202" transform="translate(0,0)"/>
<path d="" fill="#FA5103" transform="translate(0,0)"/>
<path d="" fill="#FA5605" transform="translate(0,0)"/>
<path d="" fill="#FC6508" transform="translate(0,0)"/>
<path d="" fill="#FD8811" transform="translate(0,0)"/>
<path d="" fill="#FD9514" transform="translate(0,0)"/>
<path d="" fill="#FCAB1A" transform="translate(0,0)"/>
<path d="" fill="#F84903" transform="translate(0,0)"/>
<path d="" fill="#FC7D0E" transform="translate(0,0)"/>
<path d="" fill="#FC800F" transform="translate(0,0)"/>
<path d="" fill="#FDAB1B" transform="translate(0,0)"/>
<path d="" fill="#FCB21C" transform="translate(0,0)"/>
<path d="" fill="#F83F00" transform="translate(0,0)"/>
<path d="" fill="#F94F03" transform="translate(0,0)"/>
<path d="" fill="#FA5003" transform="translate(0,0)"/>
<path d="" fill="#FDA719" transform="translate(0,0)"/>
<path d="" fill="#FCB71D" transform="translate(0,0)"/>
<path d="" fill="#FE7F0E" transform="translate(0,0)"/>
<path d="" fill="#FD8C11" transform="translate(0,0)"/>
<path d="" fill="#FEAD1A" transform="translate(0,0)"/>
<path d="" fill="#F93D00" transform="translate(0,0)"/>
<path d="" fill="#FC5C06" transform="translate(0,0)"/>
<path d="" fill="#FD6D0A" transform="translate(0,0)"/>
<path d="" fill="#FC7E0E" transform="translate(0,0)"/>
<path d="" fill="#FC8310" transform="translate(0,0)"/>
<path d="" fill="#FBB71D" transform="translate(0,0)"/>
<path d="" fill="#FA4A02" transform="translate(0,0)"/>
<path d="" fill="#FC6207" transform="translate(0,0)"/>
<path d="" fill="#FC710A" transform="translate(0,0)"/>
<path d="" fill="#FCB41C" transform="translate(0,0)"/>
<path d="" fill="#F84401" transform="translate(0,0)"/>
<path d="" fill="#FA5B05" transform="translate(0,0)"/>
<path d="" fill="#FC6A09" transform="translate(0,0)"/>
<path d="" fill="#FD9013" transform="translate(0,0)"/>
<path d="" fill="#FE9213" transform="translate(0,0)"/>
<path d="" fill="#FA4F04" transform="translate(0,0)"/>
<path d="" fill="#FB6D0A" transform="translate(0,0)"/>
<path d="" fill="#FCA418" transform="translate(0,0)"/>
<path d="" fill="#FDAA19" transform="translate(0,0)"/>
<path d="" fill="#FB6608" transform="translate(0,0)"/>
<path d="" fill="#FD6F0A" transform="translate(0,0)"/>
<path d="" fill="#FD8E12" transform="translate(0,0)"/>
<path d="" fill="#FCAB1A" transform="translate(0,0)"/>
<path d="" fill="#FA4C03" transform="translate(0,0)"/>
<path d="" fill="#FA5E07" transform="translate(0,0)"/>
<path d="" fill="#FB5D06" transform="translate(0,0)"/>
<path d="" fill="#F94401" transform="translate(0,0)"/>
<path d="" fill="#FA5104" transform="translate(0,0)"/>
<path d="" fill="#FD8811" transform="translate(0,0)"/>
<path d="" fill="#FA5304" transform="translate(0,0)"/>
<path d="" fill="#FB6708" transform="translate(0,0)"/>
<path d="" fill="#FE7B0E" transform="translate(0,0)"/>
<path d="" fill="#FD8A11" transform="translate(0,0)"/>
<path d="" fill="#FC830F" transform="translate(0,0)"/>
<path d="" fill="#F94702" transform="translate(0,0)"/>
<path d="" fill="#FE9714" transform="translate(0,0)"/>
<path d="" fill="#FD9915" transform="translate(0,0)"/>
<path d="" fill="#FC6407" transform="translate(0,0)"/>
<path d="" fill="#F94201" transform="translate(0,0)"/>
<path d="" fill="#FD760C" transform="translate(0,0)"/>
<path d="" fill="#FD750C" transform="translate(0,0)"/>
<path d="" fill="#FD8F13" transform="translate(0,0)"/>
<path d="" fill="#FDAB1A" transform="translate(0,0)"/>
<path d="" fill="#FDB01B" transform="translate(0,0)"/>
<path d="" fill="#FCB21C" transform="translate(0,0)"/>
<path d="" fill="#F95103" transform="translate(0,0)"/>
<path d="" fill="#FC6708" transform="translate(0,0)"/>
<path d="" fill="#FB6909" transform="translate(0,0)"/>
<path d="" fill="#FDA217" transform="translate(0,0)"/>
<path d="" fill="#FDAA19" transform="translate(0,0)"/>
<path d="" fill="#F93D01" transform="translate(0,0)"/>
<path d="" fill="#FD810F" transform="translate(0,0)"/>
<path d="" fill="#FD840F" transform="translate(0,0)"/>
<path d="" fill="#FE8710" transform="translate(0,0)"/>
<path d="" fill="#FD8F13" transform="translate(0,0)"/>
<path d="" fill="#FE9F16" transform="translate(0,0)"/>
<path d="" fill="#F94001" transform="translate(0,0)"/>
<path d="" fill="#FA5604" transform="translate(0,0)"/>
<path d="" fill="#FC7F0F" transform="translate(0,0)"/>
<path d="" fill="#FE8A12" transform="translate(0,0)"/>
<path d="" fill="#FE9615" transform="translate(0,0)"/>
<path d="" fill="#FCB61D" transform="translate(0,0)"/>
<path d="" fill="#F93D00" transform="translate(0,0)"/>
<path d="" fill="#FC9D16" transform="translate(0,0)"/>
<path d="" fill="#FCB11B" transform="translate(0,0)"/>
<path d="" fill="#F93F01" transform="translate(0,0)"/>
<path d="" fill="#F94602" transform="translate(0,0)"/>
<path d="" fill="#FA5304" transform="translate(0,0)"/>
<path d="" fill="#FB6608" transform="translate(0,0)"/>
<path d="" fill="#FB6808" transform="translate(0,0)"/>
<path d="" fill="#FE9915" transform="translate(0,0)"/>
<path d="" fill="#FB6808" transform="translate(0,0)"/>
<path d="" fill="#FD8610" transform="translate(0,0)"/>
<path d="" fill="#FDA418" transform="translate(0,0)"/>
<path d="" fill="#FC5A05" transform="translate(0,0)"/>
<path d="" fill="#FD8A12" transform="translate(0,0)"/>
<path d="" fill="#F94201" transform="translate(0,0)"/>
<path d="" fill="#F94502" transform="translate(0,0)"/>
<path d="" fill="#FDA81A" transform="translate(0,0)"/>
<path d="" fill="#FA4702" transform="translate(0,0)"/>
<path d="" fill="#FC6E0A" transform="translate(0,0)"/>
<path d="" fill="#FDA017" transform="translate(0,0)"/>
<path d="" fill="#FCAC1A" transform="translate(0,0)"/>
<path d="" fill="#FBB81D" transform="translate(0,0)"/>
<path d="" fill="#FD730B" transform="translate(0,0)"/>
<path d="" fill="#FDA318" transform="translate(0,0)"/>
<path d="" fill="#FCB41D" transform="translate(0,0)"/>
<path d="" fill="#FC6207" transform="translate(0,0)"/>
<path d="" fill="#FC6708" transform="translate(0,0)"/>
<path d="" fill="#FD9714" transform="translate(0,0)"/>
<path d="" fill="#F94702" transform="translate(0,0)"/>
<path d="" fill="#FB5C06" transform="translate(0,0)"/>
<path d="" fill="#FB5E07" transform="translate(0,0)"/>
<path d="" fill="#FCAD1A" transform="translate(0,0)"/>
<path d="" fill="#FBB81E" transform="translate(0,0)"/>
<path d="" fill="#FA5103" transform="translate(0,0)"/>
<path d="" fill="#FD800F" transform="translate(0,0)"/>
<path d="" fill="#FD9514" transform="translate(0,0)"/>
<path d="" fill="#FCB71D" transform="translate(0,0)"/>
<path d="" fill="#FA4C03" transform="translate(0,0)"/>
<path d="" fill="#FE8310" transform="translate(0,0)"/>
<path d="" fill="#FE9313" transform="translate(0,0)"/>
<path d="" fill="#FD9E16" transform="translate(0,0)"/>
<path d="" fill="#FDA418" transform="translate(0,0)"/>
<path d="" fill="#FDA719" transform="translate(0,0)"/>
<path d="" fill="#FCAA1A" transform="translate(0,0)"/>
<path d="" fill="#FCAD1B" transform="translate(0,0)"/>
<path d="" fill="#FCB91D" transform="translate(0,0)"/>
<path d="" fill="#F83C01" transform="translate(0,0)"/>
<path d="" fill="#FA4A02" transform="translate(0,0)"/>
<path d="" fill="#FB5D06" transform="translate(0,0)"/>
<path d="" fill="#FB6308" transform="translate(0,0)"/>
<path d="" fill="#FE8911" transform="translate(0,0)"/>
<path d="" fill="#FDA017" transform="translate(0,0)"/>
<path d="" fill="#FC5C06" transform="translate(0,0)"/>
<path d="" fill="#FB6607" transform="translate(0,0)"/>
<path d="" fill="#FD9B16" transform="translate(0,0)"/>
<path d="" fill="#FCA218" transform="translate(0,0)"/>
<path d="" fill="#FDA218" transform="translate(0,0)"/>
<path d="" fill="#F94302" transform="translate(0,0)"/>
<path d="" fill="#FDA117" transform="translate(0,0)"/>
<path d="" fill="#FCAD1A" transform="translate(0,0)"/>
<path d="" fill="#FD700B" transform="translate(0,0)"/>
<path d="" fill="#FD840F" transform="translate(0,0)"/>
<path d="" fill="#FD9E17" transform="translate(0,0)"/>
<path d="" fill="#FC6708" transform="translate(0,0)"/>
<path d="" fill="#FDA218" transform="translate(0,0)"/>
<path d="" fill="#FDA81A" transform="translate(0,0)"/>
<path d="" fill="#F93C01" transform="translate(0,0)"/>
<path d="" fill="#FA5604" transform="translate(0,0)"/>
<path d="" fill="#FD9715" transform="translate(0,0)"/>
<path d="" fill="#FD9A15" transform="translate(0,0)"/>
<path d="" fill="#FD9A16" transform="translate(0,0)"/>
<path d="" fill="#F94001" transform="translate(0,0)"/>
<path d="" fill="#FD750C" transform="translate(0,0)"/>
<path d="" fill="#FD7E0E" transform="translate(0,0)"/>
<path d="" fill="#FD8C12" transform="translate(0,0)"/>
<path d="" fill="#FE9114" transform="translate(0,0)"/>
<path d="" fill="#FD9714" transform="translate(0,0)"/>
<path d="" fill="#F94101" transform="translate(0,0)"/>
<path d="" fill="#FE7B0D" transform="translate(0,0)"/>
<path d="" fill="#FD9E16" transform="translate(0,0)"/>
<path d="" fill="#FCAE1B" transform="translate(0,0)"/>
<path d="" fill="#FE7D0E" transform="translate(0,0)"/>
<path d="" fill="#FC720B" transform="translate(0,0)"/>
<path d="" fill="#FD8811" transform="translate(0,0)"/>
<path d="" fill="#FD8510" transform="translate(0,0)"/>
<path d="" fill="#FD8911" transform="translate(0,0)"/>
<path d="" fill="#FD9013" transform="translate(0,0)"/>
<path d="" fill="#FD9A16" transform="translate(0,0)"/>
<path d="" fill="#FBB71D" transform="translate(0,0)"/>
<path d="" fill="#FA4D03" transform="translate(0,0)"/>
<path d="" fill="#FB5F06" transform="translate(0,0)"/>
<path d="" fill="#FC9F17" transform="translate(0,0)"/>
<path d="" fill="#FD7C0D" transform="translate(0,0)"/>
<path d="" fill="#FD8710" transform="translate(0,0)"/>
<path d="" fill="#FD9715" transform="translate(0,0)"/>
<path d="" fill="#FD9B16" transform="translate(0,0)"/>
<path d="" fill="#FCAB1A" transform="translate(0,0)"/>
<path d="" fill="#F93E00" transform="translate(0,0)"/>
<path d="" fill="#FB5805" transform="translate(0,0)"/>
<path d="" fill="#FD9514" transform="translate(0,0)"/>
<path d="" fill="#FCB01B" transform="translate(0,0)"/>
<path d="" fill="#FA5104" transform="translate(0,0)"/>
<path d="" fill="#FDA318" transform="translate(0,0)"/>
<path d="" fill="#FBBB1E" transform="translate(0,0)"/>
<path d="" fill="#FC7A0D" transform="translate(0,0)"/>
<path d="" fill="#FE9A15" transform="translate(0,0)"/>
<path d="" fill="#FDAC1B" transform="translate(0,0)"/>
<path d="" fill="#FDA016" transform="translate(0,0)"/>
<path d="" fill="#F94903" transform="translate(0,0)"/>
<path d="" fill="#FD9614" transform="translate(0,0)"/>
<path d="" fill="#F94E03" transform="translate(0,0)"/>
<path d="" fill="#FD830F" transform="translate(0,0)"/>
<path d="" fill="#FD8911" transform="translate(0,0)"/>
<path d="" fill="#FCB31C" transform="translate(0,0)"/>
<path d="" fill="#FA5D07" transform="translate(0,0)"/>
<path d="" fill="#F93D01" transform="translate(0,0)"/>
<path d="" fill="#FD9614" transform="translate(0,0)"/>
<path d="" fill="#FBBA1E" transform="translate(0,0)"/>
<path d="" fill="#FD810F" transform="translate(0,0)"/>
<path d="" fill="#FD8D12" transform="translate(0,0)"/>
<path d="" fill="#FD9C16" transform="translate(0,0)"/>
<path d="" fill="#FD9F16" transform="translate(0,0)"/>
<path d="" fill="#FDA218" transform="translate(0,0)"/>
<path d="" fill="#FBB31C" transform="translate(0,0)"/>
<path d="" fill="#FB5404" transform="translate(0,0)"/>
<path d="" fill="#FA5704" transform="translate(0,0)"/>
<path d="" fill="#FD780C" transform="translate(0,0)"/>
<path d="" fill="#FD9A15" transform="translate(0,0)"/>
<path d="" fill="#FABA1E" transform="translate(0,0)"/>
<path d="" fill="#FC810E" transform="translate(0,0)"/>
<path d="" fill="#FE8B11" transform="translate(0,0)"/>
<path d="" fill="#FCB01C" transform="translate(0,0)"/>
<path d="" fill="#F94101" transform="translate(0,0)"/>
<path d="" fill="#FBB91E" transform="translate(0,0)"/>
<path d="" fill="#FA5204" transform="translate(0,0)"/>
<path d="" fill="#FB6508" transform="translate(0,0)"/>
<path d="" fill="#FDAB1A" transform="translate(0,0)"/>
<path d="" fill="#FCAE1A" transform="translate(0,0)"/>
<path d="" fill="#FDA518" transform="translate(0,0)"/>
<path d="" fill="#FD8D12" transform="translate(0,0)"/>
<path d="" fill="#FCA719" transform="translate(0,0)"/>
<path d="" fill="#F83E00" transform="translate(0,0)"/>
<path d="" fill="#FD790D" transform="translate(0,0)"/>
<path d="" fill="#FE9714" transform="translate(0,0)"/>
<path d="" fill="#F83C00" transform="translate(0,0)"/>
<path d="" fill="#FD8510" transform="translate(0,0)"/>
<path d="" fill="#FDA118" transform="translate(0,0)"/>
<path d="" fill="#FBB41C" transform="translate(0,0)"/>
<path d="" fill="#FCB41C" transform="translate(0,0)"/>
<path d="" fill="#F94101" transform="translate(0,0)"/>
<path d="" fill="#FA4A03" transform="translate(0,0)"/>
<path d="" fill="#F94C03" transform="translate(0,0)"/>
<path d="" fill="#FB6207" transform="translate(0,0)"/>
<path d="" fill="#FD830F" transform="translate(0,0)"/>
<path d="" fill="#FB6007" transform="translate(0,0)"/>
<path d="" fill="#FE8811" transform="translate(0,0)"/>
<path d="" fill="#FBBB1E" transform="translate(0,0)"/>
<path d="" fill="#FD6B09" transform="translate(0,0)"/>
<path d="" fill="#FE810F" transform="translate(0,0)"/>
<path d="" fill="#FD8F13" transform="translate(0,0)"/>
<path d="" fill="#FDA619" transform="translate(0,0)"/>
<path d="" fill="#FCB71D" transform="translate(0,0)"/>
<path d="" fill="#FC6107" transform="translate(0,0)"/>
<path d="" fill="#FD750C" transform="translate(0,0)"/>
<path d="" fill="#FC760C" transform="translate(0,0)"/>
<path d="" fill="#FD9314" transform="translate(0,0)"/>
<path d="" fill="#FCB71D" transform="translate(0,0)"/>
<path d="" fill="#FD6808" transform="translate(0,0)"/>
<path d="" fill="#FC810F" transform="translate(0,0)"/>
<path d="" fill="#FE8F12" transform="translate(0,0)"/>
<path d="" fill="#FD9B15" transform="translate(0,0)"/>
<path d="" fill="#FBAE1A" transform="translate(0,0)"/>
<path d="" fill="#FBBA1E" transform="translate(0,0)"/>
<path d="" fill="#F83E01" transform="translate(0,0)"/>
<path d="" fill="#FA4F04" transform="translate(0,0)"/>
<path d="" fill="#FB5A05" transform="translate(0,0)"/>
<path d="" fill="#FB5C06" transform="translate(0,0)"/>
<path d="" fill="#FE9714" transform="translate(0,0)"/>
<path d="" fill="#FD9815" transform="translate(0,0)"/>
<path d="" fill="#FD9A15" transform="translate(0,0)"/>
<path d="" fill="#FDA218" transform="translate(0,0)"/>
<path d="" fill="#FD7E0E" transform="translate(0,0)"/>
<path d="" fill="#FE8910" transform="translate(0,0)"/>
<path d="" fill="#FD9B15" transform="translate(0,0)"/>
<path d="" fill="#FCB11B" transform="translate(0,0)"/>
<path d="" fill="#FAB81D" transform="translate(0,0)"/>
<path d="" fill="#FBBA1E" transform="translate(0,0)"/>
<path d="" fill="#FBBB1E" transform="translate(0,0)"/>
<path d="" fill="#FABA1E" transform="translate(0,0)"/>
<path d="" fill="#F94E03" transform="translate(0,0)"/>
<path d="" fill="#FB5B06" transform="translate(0,0)"/>
<path d="" fill="#FB6308" transform="translate(0,0)"/>
<path d="" fill="#FD9915" transform="translate(0,0)"/>
<path d="" fill="#FDA819" transform="translate(0,0)"/>
<path d="" fill="#FCAC1B" transform="translate(0,0)"/>
<path d="" fill="#FA6308" transform="translate(0,0)"/>
<path d="" fill="#FD7B0D" transform="translate(0,0)"/>
<path d="" fill="#FC7B0D" transform="translate(0,0)"/>
<path d="" fill="#FD800F" transform="translate(0,0)"/>
<path d="" fill="#F83E01" transform="translate(0,0)"/>
<path d="" fill="#FB5B06" transform="translate(0,0)"/>
<path d="" fill="#FB5D06" transform="translate(0,0)"/>
<path d="" fill="#FD7E0E" transform="translate(0,0)"/>
<path d="" fill="#FD8B12" transform="translate(0,0)"/>
<path d="" fill="#FD9B16" transform="translate(0,0)"/>
<path d="" fill="#FD760C" transform="translate(0,0)"/>
<path d="" fill="#FD830F" transform="translate(0,0)"/>
<path d="" fill="#FCAF1B" transform="translate(0,0)"/>
<path d="" fill="#F94A02" transform="translate(0,0)"/>
<path d="" fill="#F95304" transform="translate(0,0)"/>
<path d="" fill="#FB5E07" transform="translate(0,0)"/>
<path d="" fill="#FE9A15" transform="translate(0,0)"/>
<path d="" fill="#FB6408" transform="translate(0,0)"/>
<path d="" fill="#FE9314" transform="translate(0,0)"/>
<path d="" fill="#FDA117" transform="translate(0,0)"/>
<path d="" fill="#F84402" transform="translate(0,0)"/>
<path d="" fill="#FD9714" transform="translate(0,0)"/>
<path d="" fill="#FCAC1A" transform="translate(0,0)"/>
<path d="" fill="#FA4E04" transform="translate(0,0)"/>
<path d="" fill="#FE8D13" transform="translate(0,0)"/>
<path d="" fill="#FA4902" transform="translate(0,0)"/>
<path d="" fill="#FC6107" transform="translate(0,0)"/>
<path d="" fill="#FC8610" transform="translate(0,0)"/>
<path d="" fill="#FCB41C" transform="translate(0,0)"/>
<path d="" fill="#F83F01" transform="translate(0,0)"/>
<path d="" fill="#FD800F" transform="translate(0,0)"/>
<path d="" fill="#FD9B16" transform="translate(0,0)"/>
<path d="" fill="#FB5805" transform="translate(0,0)"/>
<path d="" fill="#FC6608" transform="translate(0,0)"/>
<path d="" fill="#FC6708" transform="translate(0,0)"/>
<path d="" fill="#FEAA19" transform="translate(0,0)"/>
<path d="" fill="#F94802" transform="translate(0,0)"/>
<path d="" fill="#FC720B" transform="translate(0,0)"/>
<path d="" fill="#FBBB1E" transform="translate(0,0)"/>
<path d="" fill="#FA4C03" transform="translate(0,0)"/>
<path d="" fill="#FB5504" transform="translate(0,0)"/>
<path d="" fill="#FD9715" transform="translate(0,0)"/>
<path d="" fill="#FDA118" transform="translate(0,0)"/>
<path d="" fill="#FDAD1A" transform="translate(0,0)"/>
<path d="" fill="#FCB11B" transform="translate(0,0)"/>
<path d="" fill="#FC770C" transform="translate(0,0)"/>
<path d="" fill="#FD710B" transform="translate(0,0)"/>
<path d="" fill="#FE8410" transform="translate(0,0)"/>
<path d="" fill="#FDA819" transform="translate(0,0)"/>
<path d="" fill="#FBBB1E" transform="translate(0,0)"/>
<path d="" fill="#FB5504" transform="translate(0,0)"/>
<path d="" fill="#FC6709" transform="translate(0,0)"/>
<path d="" fill="#FC6F0B" transform="translate(0,0)"/>
<path d="" fill="#FCA318" transform="translate(0,0)"/>
<path d="" fill="#FCB41C" transform="translate(0,0)"/>
<path d="" fill="#F94001" transform="translate(0,0)"/>
<path d="" fill="#F94A02" transform="translate(0,0)"/>
<path d="" fill="#FE8B11" transform="translate(0,0)"/>
<path d="" fill="#FD9915" transform="translate(0,0)"/>
<path d="" fill="#FA5304" transform="translate(0,0)"/>
<path d="" fill="#FD9113" transform="translate(0,0)"/>
<path d="" fill="#FBB61D" transform="translate(0,0)"/>
<path d="" fill="#F94902" transform="translate(0,0)"/>
<path d="" fill="#FE780C" transform="translate(0,0)"/>
<path d="" fill="#FD7C0D" transform="translate(0,0)"/>
<path d="" fill="#FD8D12" transform="translate(0,0)"/>
<path d="" fill="#FD9313" transform="translate(0,0)"/>
<path d="" fill="#FDAB1A" transform="translate(0,0)"/>
<path d="" fill="#FA5604" transform="translate(0,0)"/>
<path d="" fill="#FD9414" transform="translate(0,0)"/>
<path d="" fill="#FE9814" transform="translate(0,0)"/>
<path d="" fill="#FB5B05" transform="translate(0,0)"/>
<path d="" fill="#FB5E06" transform="translate(0,0)"/>
<path d="" fill="#FD8410" transform="translate(0,0)"/>
<path d="" fill="#FD9013" transform="translate(0,0)"/>
<path d="" fill="#F94602" transform="translate(0,0)"/>
<path d="" fill="#FC770D" transform="translate(0,0)"/>
<path d="" fill="#FCA318" transform="translate(0,0)"/>
<path d="" fill="#FBB81D" transform="translate(0,0)"/>
<path d="" fill="#F93E01" transform="translate(0,0)"/>
<path d="" fill="#FE8D12" transform="translate(0,0)"/>
<path d="" fill="#FDA618" transform="translate(0,0)"/>
<path d="" fill="#FBB31C" transform="translate(0,0)"/>
<path d="" fill="#FABC1F" transform="translate(0,0)"/>
<path d="" fill="#F93E00" transform="translate(0,0)"/>
<path d="" fill="#FCB11C" transform="translate(0,0)"/>
<path d="" fill="#FD770C" transform="translate(0,0)"/>
<path d="" fill="#FE9D16" transform="translate(0,0)"/>
<path d="" fill="#FDA218" transform="translate(0,0)"/>
<path d="" fill="#FA4B03" transform="translate(0,0)"/>
<path d="" fill="#FC6709" transform="translate(0,0)"/>
<path d="" fill="#FD7C0E" transform="translate(0,0)"/>
<path d="" fill="#FD8911" transform="translate(0,0)"/>
<path d="" fill="#FD9C16" transform="translate(0,0)"/>
<path d="" fill="#FA5304" transform="translate(0,0)"/>
<path d="" fill="#FA5304" transform="translate(0,0)"/>
<path d="" fill="#FD740C" transform="translate(0,0)"/>
<path d="" fill="#F93E00" transform="translate(0,0)"/>
<path d="" fill="#FA5D06" transform="translate(0,0)"/>
<path d="" fill="#FB6107" transform="translate(0,0)"/>
<path d="" fill="#FE8D12" transform="translate(0,0)"/>
<path d="" fill="#FE9214" transform="translate(0,0)"/>
<path d="" fill="#FD9714" transform="translate(0,0)"/>
<path d="" fill="#FBBC1E" transform="translate(0,0)"/>
<path d="" fill="#FA4F03" transform="translate(0,0)"/>
<path d="" fill="#F84703" transform="translate(0,0)"/>
<path d="" fill="#FA4C03" transform="translate(0,0)"/>
<path d="" fill="#FDA017" transform="translate(0,0)"/>
<path d="" fill="#FC6608" transform="translate(0,0)"/>
<path d="" fill="#FE9E17" transform="translate(0,0)"/>
<path d="" fill="#FDA017" transform="translate(0,0)"/>
<path d="" fill="#FBB51C" transform="translate(0,0)"/>
<path d="" fill="#FCB71C" transform="translate(0,0)"/>
<path d="" fill="#FA4902" transform="translate(0,0)"/>
<path d="" fill="#FA5404" transform="translate(0,0)"/>
<path d="" fill="#FE9A15" transform="translate(0,0)"/>
<path d="" fill="#FDA017" transform="translate(0,0)"/>
<path d="" fill="#FDAE1B" transform="translate(0,0)"/>
<path d="" fill="#F94001" transform="translate(0,0)"/>
<path d="" fill="#FC710B" transform="translate(0,0)"/>
<path d="" fill="#FC800F" transform="translate(0,0)"/>
</svg>
